<?xml version="1.0" encoding="UTF-8"?>
<svg width="722px" height="147px" viewBox="0 0 722 147" version="1.1" xmlns="http://www.w3.org/2000/svg" xmlns:xlink="http://www.w3.org/1999/xlink">
    <!-- Generator: Sketch 48 (47235) - http://www.bohemiancoding.com/sketch -->
    <title>CUBG_Outline_White</title>
    <desc>Created with Sketch.</desc>
    <defs>
        <polygon id="path-1" points="0.06 0.036 721.459 0.036 721.459 147 0.06 147"></polygon>
    </defs>
    <g id="Page-1" stroke="none" stroke-width="1" fill="none" fill-rule="evenodd">
        <g id="CUBG_Outline_White">
            <path d="M183.923,32.177 C182.918,31.085 181.863,30.288 180.756,29.785 C179.648,29.284 178.415,29.033 177.057,29.033 C174.104,29.033 171.845,30.081 170.28,32.177 C168.715,34.274 167.933,37.242 167.933,41.08 C167.933,44.919 168.745,47.894 170.369,50.005 C171.993,52.117 174.34,53.172 177.412,53.172 C178.71,53.172 179.973,52.877 181.199,52.286 C182.424,51.696 183.48,50.884 184.366,49.85 C184.779,50.176 185.147,50.581 185.473,51.068 C185.797,51.555 185.96,51.947 185.96,52.242 C185.96,52.715 185.753,53.157 185.34,53.571 C184.454,54.457 183.273,55.165 181.796,55.697 C180.32,56.228 178.725,56.494 177.013,56.494 C172.79,56.494 169.557,55.151 167.313,52.464 C165.068,49.777 163.946,45.997 163.946,41.125 C163.946,36.252 165.09,32.451 167.379,29.719 C169.667,26.988 172.893,25.622 177.057,25.622 C178.563,25.622 180.003,25.851 181.376,26.308 C182.749,26.767 183.841,27.32 184.653,27.969 C185.465,28.619 185.871,29.24 185.871,29.83 C185.871,30.421 185.487,31.203 184.72,32.177 L183.923,32.177" id="Fill-1" fill="#FFFFFE"></path>
            <path d="M202.171,45.332 L200.887,45.332 C198.199,45.332 196.154,45.709 194.752,46.462 C193.349,47.215 192.648,48.33 192.648,49.806 C192.648,50.899 192.965,51.733 193.6,52.308 C194.235,52.885 195.173,53.172 196.413,53.172 C197.388,53.172 198.325,52.995 199.225,52.641 C200.126,52.286 200.842,51.843 201.374,51.312 C201.905,50.781 202.171,50.293 202.171,49.85 L202.171,45.332 Z M191.054,39.663 C190.817,39.28 190.618,38.865 190.455,38.423 C190.293,37.98 190.212,37.625 190.212,37.36 C190.212,36.858 190.611,36.385 191.408,35.942 C192.205,35.499 193.202,35.153 194.398,34.901 C195.594,34.651 196.782,34.525 197.963,34.525 C200.739,34.525 202.747,35.116 203.987,36.297 C205.227,37.478 205.848,39.471 205.848,42.276 L205.848,51.002 C205.848,51.829 205.892,52.457 205.98,52.885 C206.069,53.313 206.239,53.608 206.49,53.77 C206.74,53.933 207.249,54.014 208.018,54.014 L208.018,55.785 C207.398,55.992 206.674,56.096 205.848,56.096 C203.662,56.096 202.466,55.254 202.26,53.571 C201.314,54.516 200.303,55.195 199.225,55.608 C198.147,56.022 196.915,56.228 195.527,56.228 C193.43,56.228 191.799,55.697 190.633,54.634 C189.466,53.571 188.883,52.036 188.883,50.028 C188.883,47.665 189.88,45.842 191.873,44.557 C193.866,43.273 196.663,42.572 200.267,42.453 C201.152,42.453 201.772,42.468 202.127,42.498 L202.127,41.833 C202.127,40.357 201.765,39.308 201.041,38.688 C200.318,38.068 199.144,37.758 197.52,37.758 C196.369,37.758 195.328,37.899 194.398,38.179 C193.468,38.46 192.5,38.954 191.496,39.663 L191.054,39.663 Z" id="Fill-2" fill="#FFFFFE"></path>
            <path d="M212.624,34.924 C212.949,34.894 213.229,34.879 213.466,34.879 C215.119,34.879 216.049,35.632 216.256,37.138 C217.054,36.312 218.028,35.67 219.18,35.211 C220.331,34.754 221.556,34.525 222.856,34.525 C224.096,34.525 225.248,34.768 226.311,35.256 C227.374,35.743 228.156,36.415 228.659,37.271 C229.455,36.415 230.452,35.743 231.648,35.256 C232.844,34.768 234.106,34.525 235.435,34.525 C237.207,34.525 238.653,34.931 239.776,35.743 C240.898,36.555 241.621,37.699 241.946,39.176 C242.153,39.973 242.256,41.331 242.256,43.251 L242.256,55.83 L238.492,55.83 L238.492,43.384 C238.492,42.823 238.484,42.284 238.469,41.767 C238.454,41.25 238.373,40.77 238.225,40.327 C238.019,39.501 237.583,38.895 236.919,38.511 C236.255,38.128 235.302,37.935 234.062,37.935 C233.176,37.935 232.305,38.128 231.449,38.511 C230.592,38.895 229.928,39.368 229.455,39.928 C229.573,40.844 229.633,41.937 229.633,43.206 L229.633,55.83 L225.868,55.83 L225.868,43.384 C225.868,41.996 225.735,40.918 225.469,40.15 C224.967,38.674 223.638,37.935 221.483,37.935 C220.213,37.935 219.047,38.26 217.984,38.91 C216.921,39.56 216.389,40.254 216.389,40.992 L216.389,55.83 L212.624,55.83 L212.624,34.924" id="Fill-3" fill="#FFFFFE"></path>
            <path d="M252.576,50.825 C253.107,51.534 253.83,52.117 254.746,52.575 C255.661,53.033 256.606,53.261 257.581,53.261 C259.382,53.261 260.755,52.596 261.7,51.268 C262.645,49.939 263.118,47.975 263.118,45.377 C263.118,40.268 261.242,37.714 257.492,37.714 C256.075,37.714 254.901,38.017 253.971,38.622 C253.041,39.227 252.576,39.973 252.576,40.859 L252.576,50.825 Z M248.811,24.426 C249.077,24.397 249.342,24.382 249.608,24.382 C251.586,24.382 252.576,25.386 252.576,27.394 L252.576,36.784 C254.081,35.278 256.104,34.525 258.644,34.525 C261.33,34.525 263.42,35.441 264.912,37.271 C266.402,39.102 267.148,41.73 267.148,45.155 C267.148,47.607 266.786,49.666 266.063,51.334 C265.339,53.003 264.298,54.28 262.94,55.165 C261.582,56.051 260.002,56.494 258.201,56.494 C256.931,56.494 255.787,56.265 254.768,55.808 C253.749,55.35 252.989,54.767 252.487,54.058 L252.487,55.83 L248.811,55.83 L248.811,24.426 Z" id="Fill-4" fill="#FFFFFE"></path>
            <path d="M272.552,34.924 C272.876,34.894 273.142,34.879 273.35,34.879 C274.146,34.879 274.796,35.072 275.298,35.455 C275.8,35.839 276.096,36.385 276.184,37.094 C276.686,36.326 277.365,35.706 278.222,35.234 C279.078,34.761 279.978,34.525 280.923,34.525 C281.868,34.525 282.636,34.687 283.226,35.012 C283.817,35.337 284.113,35.795 284.113,36.385 C284.113,36.769 284.009,37.234 283.803,37.78 C283.596,38.327 283.344,38.821 283.05,39.264 C282.636,38.881 282.2,38.6 281.743,38.423 C281.285,38.245 280.746,38.157 280.126,38.157 C279.122,38.157 278.236,38.46 277.469,39.065 C276.7,39.671 276.317,40.357 276.317,41.125 L276.317,55.83 L272.552,55.83 L272.552,34.924" id="Fill-5" fill="#FFFFFE"></path>
            <path d="M287.921,34.791 C288.187,34.761 288.453,34.746 288.719,34.746 C290.697,34.746 291.686,35.751 291.686,37.758 L291.686,51.843 C291.686,52.789 291.833,53.416 292.129,53.726 C292.424,54.036 292.985,54.191 293.812,54.191 L293.812,55.785 C293.192,55.992 292.38,56.096 291.376,56.096 C290.579,56.096 289.929,55.963 289.427,55.697 C288.925,55.431 288.548,55.01 288.298,54.435 C288.047,53.859 287.921,52.892 287.921,51.534 L287.921,34.791 Z M287.257,28.191 C287.257,27.453 287.485,26.847 287.943,26.375 C288.401,25.903 288.969,25.666 289.649,25.666 C290.328,25.666 290.896,25.903 291.354,26.375 C291.811,26.847 292.04,27.453 292.04,28.191 C292.04,28.87 291.811,29.439 291.354,29.896 C290.896,30.354 290.328,30.583 289.649,30.583 C288.969,30.583 288.401,30.354 287.943,29.896 C287.485,29.439 287.257,28.87 287.257,28.191 Z" id="Fill-6" fill="#FFFFFE"></path>
            <path d="M312.017,40.017 C311.101,39.131 310.259,38.534 309.492,38.223 C308.724,37.913 307.868,37.758 306.923,37.758 C305.18,37.758 303.837,38.416 302.892,39.729 C301.947,41.044 301.475,42.896 301.475,45.288 C301.475,50.633 303.35,53.305 307.1,53.305 C308.429,53.305 309.58,53.01 310.555,52.419 C311.529,51.829 312.017,51.15 312.017,50.382 L312.017,40.017 Z M312.105,54.058 C310.481,55.682 308.532,56.494 306.258,56.494 C303.482,56.494 301.327,55.564 299.791,53.704 C298.256,51.843 297.488,49.186 297.488,45.731 C297.488,43.369 297.857,41.354 298.596,39.685 C299.333,38.017 300.374,36.74 301.718,35.854 C303.061,34.968 304.604,34.525 306.347,34.525 C308.561,34.525 310.451,35.249 312.017,36.695 L312.017,24.426 C312.282,24.397 312.548,24.382 312.814,24.382 C314.792,24.382 315.781,25.386 315.781,27.394 L315.781,55.83 L312.105,55.83 L312.105,54.058 Z" id="Fill-7" fill="#FFFFFE"></path>
            <path d="M335.713,40.017 C334.266,38.511 332.568,37.758 330.619,37.758 C328.876,37.758 327.533,38.416 326.588,39.729 C325.643,41.044 325.171,42.896 325.171,45.288 C325.171,50.633 327.046,53.305 330.796,53.305 C332.125,53.305 333.277,53.01 334.251,52.419 C335.225,51.829 335.713,51.15 335.713,50.382 L335.713,40.017 Z M335.801,54.058 C334.177,55.682 332.228,56.494 329.954,56.494 C327.179,56.494 325.023,55.564 323.488,53.704 C321.952,51.843 321.184,49.186 321.184,45.731 C321.184,43.369 321.546,41.354 322.27,39.685 C322.993,38.017 324.019,36.74 325.348,35.854 C326.677,34.968 328.212,34.525 329.954,34.525 C332.405,34.525 334.354,35.278 335.801,36.784 C335.949,36.223 336.267,35.765 336.754,35.411 C337.241,35.056 337.779,34.879 338.371,34.879 C338.813,34.879 339.182,34.909 339.477,34.968 L339.477,54.368 C339.477,57.115 339.138,59.307 338.459,60.946 C337.779,62.585 336.694,63.795 335.204,64.578 C333.712,65.36 331.77,65.752 329.379,65.752 C326.928,65.752 324.861,65.293 323.178,64.378 C322.646,64.053 322.27,63.743 322.048,63.448 C321.827,63.153 321.716,62.843 321.716,62.518 C321.716,61.927 322.188,61.115 323.134,60.082 C323.34,60.348 323.82,60.702 324.573,61.145 C325.326,61.588 326.108,61.927 326.92,62.164 C327.732,62.4 328.552,62.518 329.379,62.518 C330.885,62.518 332.11,62.275 333.055,61.787 C334,61.3 334.694,60.503 335.137,59.395 C335.58,58.288 335.801,56.612 335.801,54.368 L335.801,54.058 Z" id="Fill-8" fill="#FFFFFE"></path>
            <path d="M359.144,43.295 C359.144,39.515 357.504,37.625 354.226,37.625 C352.661,37.625 351.392,38.135 350.417,39.154 C349.443,40.172 348.896,41.553 348.779,43.295 L359.144,43.295 Z M348.779,46.13 C348.867,48.433 349.465,50.205 350.573,51.445 C351.68,52.685 353.267,53.305 355.334,53.305 C357.785,53.305 359.734,52.464 361.181,50.781 C361.536,51.223 361.83,51.674 362.067,52.132 C362.303,52.59 362.421,52.951 362.421,53.217 C362.421,53.719 362.096,54.221 361.447,54.722 C359.852,55.903 357.696,56.494 354.98,56.494 C351.731,56.494 349.236,55.535 347.494,53.615 C345.751,51.696 344.881,48.906 344.881,45.244 C344.881,43 345.287,41.08 346.099,39.486 C346.911,37.891 348.048,36.666 349.51,35.809 C350.971,34.953 352.602,34.525 354.404,34.525 C356.204,34.525 357.741,34.901 359.01,35.655 C360.28,36.407 361.247,37.478 361.912,38.865 C362.577,40.254 362.909,41.848 362.909,43.649 C362.909,44.801 362.864,45.628 362.776,46.13 L348.779,46.13 Z" id="Fill-9" fill="#FFFFFE"></path>
            <path d="M376.949,26.154 C377.42,26.094 377.789,26.065 378.055,26.065 C379.887,26.065 380.801,26.995 380.801,28.855 L380.801,44.579 C380.801,47.474 381.356,49.607 382.463,50.98 C383.571,52.353 385.289,53.039 387.623,53.039 C389.69,53.039 391.27,52.641 392.362,51.843 C393.455,51.046 394.163,49.791 394.489,48.078 C394.666,47.104 394.754,45.938 394.754,44.579 L394.754,26.154 C395.227,26.094 395.596,26.065 395.862,26.065 C397.692,26.065 398.608,26.995 398.608,28.855 L398.608,44.048 C398.608,45.702 398.563,46.898 398.475,47.635 C398.18,50.5 397.102,52.693 395.241,54.213 C393.381,55.734 390.813,56.494 387.534,56.494 C384.551,56.494 382.211,55.83 380.514,54.501 C378.815,53.172 377.715,51.164 377.214,48.477 C377.038,47.474 376.949,46.041 376.949,44.181 L376.949,26.154" id="Fill-10" fill="#FFFFFE"></path>
            <path d="M404.542,34.924 C404.808,34.894 405.059,34.879 405.295,34.879 C406.093,34.879 406.743,35.072 407.245,35.455 C407.746,35.839 408.041,36.4 408.13,37.138 C408.956,36.312 409.968,35.67 411.164,35.211 C412.361,34.754 413.652,34.525 415.04,34.525 C416.841,34.525 418.31,34.924 419.448,35.721 C420.583,36.518 421.344,37.67 421.729,39.176 C421.935,39.973 422.038,41.331 422.038,43.251 L422.038,55.83 L418.274,55.83 L418.274,43.384 C418.274,41.937 418.185,40.918 418.008,40.327 C417.771,39.501 417.314,38.895 416.635,38.511 C415.955,38.128 415.025,37.935 413.844,37.935 C412.782,37.935 411.829,38.084 410.988,38.378 C410.146,38.674 409.489,39.065 409.016,39.552 C408.543,40.039 408.308,40.549 408.308,41.08 L408.308,55.83 L404.542,55.83 L404.542,34.924" id="Fill-11" fill="#FFFFFE"></path>
            <path d="M428.549,34.791 C428.815,34.761 429.08,34.746 429.346,34.746 C431.325,34.746 432.314,35.751 432.314,37.758 L432.314,51.843 C432.314,52.789 432.461,53.416 432.757,53.726 C433.052,54.036 433.613,54.191 434.44,54.191 L434.44,55.785 C433.82,55.992 433.007,56.096 432.004,56.096 C431.206,56.096 430.557,55.963 430.055,55.697 C429.553,55.431 429.176,55.01 428.926,54.435 C428.674,53.859 428.549,52.892 428.549,51.534 L428.549,34.791 Z M427.885,28.191 C427.885,27.453 428.114,26.847 428.572,26.375 C429.029,25.903 429.597,25.666 430.277,25.666 C430.955,25.666 431.524,25.903 431.982,26.375 C432.44,26.847 432.668,27.453 432.668,28.191 C432.668,28.87 432.44,29.439 431.982,29.896 C431.524,30.354 430.955,30.583 430.277,30.583 C429.597,30.583 429.029,30.354 428.572,29.896 C428.114,29.439 427.885,28.87 427.885,28.191 Z" id="Fill-12" fill="#FFFFFE"></path>
            <path d="M436.655,35.234 C437.364,34.997 438.028,34.879 438.648,34.879 C439.415,34.879 440.028,35.101 440.487,35.544 C440.944,35.987 441.365,36.828 441.748,38.068 L446.488,52.154 L451.316,38.245 C451.611,37.36 451.892,36.688 452.158,36.23 C452.423,35.773 452.748,35.433 453.132,35.211 C453.515,34.99 453.974,34.879 454.505,34.879 C455.214,34.879 455.804,35.012 456.277,35.278 L448.304,56.007 L444.451,56.007 L436.655,35.234" id="Fill-13" fill="#FFFFFE"></path>
            <path d="M472.665,43.295 C472.665,39.515 471.027,37.625 467.748,37.625 C466.183,37.625 464.913,38.135 463.94,39.154 C462.965,40.172 462.418,41.553 462.3,43.295 L472.665,43.295 Z M462.3,46.13 C462.389,48.433 462.987,50.205 464.094,51.445 C465.202,52.685 466.788,53.305 468.856,53.305 C471.307,53.305 473.255,52.464 474.703,50.781 C475.057,51.223 475.352,51.674 475.588,52.132 C475.825,52.59 475.943,52.951 475.943,53.217 C475.943,53.719 475.618,54.221 474.968,54.722 C473.373,55.903 471.218,56.494 468.501,56.494 C465.253,56.494 462.758,55.535 461.016,53.615 C459.274,51.696 458.403,48.906 458.403,45.244 C458.403,43 458.808,41.08 459.621,39.486 C460.433,37.891 461.57,36.666 463.032,35.809 C464.494,34.953 466.124,34.525 467.926,34.525 C469.727,34.525 471.262,34.901 472.533,35.655 C473.801,36.407 474.769,37.478 475.434,38.865 C476.098,40.254 476.43,41.848 476.43,43.649 C476.43,44.801 476.386,45.628 476.297,46.13 L462.3,46.13 Z" id="Fill-14" fill="#FFFFFE"></path>
            <path d="M481.611,34.924 C481.936,34.894 482.202,34.879 482.409,34.879 C483.205,34.879 483.855,35.072 484.357,35.455 C484.859,35.839 485.155,36.385 485.244,37.094 C485.745,36.326 486.424,35.706 487.281,35.234 C488.137,34.761 489.038,34.525 489.983,34.525 C490.927,34.525 491.695,34.687 492.286,35.012 C492.876,35.337 493.171,35.795 493.171,36.385 C493.171,36.769 493.068,37.234 492.862,37.78 C492.655,38.327 492.404,38.821 492.109,39.264 C491.695,38.881 491.259,38.6 490.802,38.423 C490.344,38.245 489.805,38.157 489.185,38.157 C488.181,38.157 487.295,38.46 486.528,39.065 C485.759,39.671 485.376,40.357 485.376,41.125 L485.376,55.83 L481.611,55.83 L481.611,34.924" id="Fill-15" fill="#FFFFFE"></path>
            <path d="M508.409,39.885 C507.847,39.205 507.079,38.652 506.105,38.223 C505.131,37.796 504.141,37.581 503.138,37.581 C501.926,37.581 500.967,37.81 500.258,38.268 C499.55,38.726 499.196,39.383 499.196,40.239 C499.196,40.711 499.321,41.132 499.572,41.501 C499.823,41.87 500.244,42.195 500.834,42.475 C501.424,42.757 502.34,43.044 503.58,43.339 C505.292,43.753 506.629,44.24 507.589,44.801 C508.548,45.362 509.257,46.063 509.715,46.905 C510.172,47.746 510.402,48.743 510.402,49.895 C510.402,51.873 509.649,53.46 508.143,54.656 C506.637,55.852 504.688,56.45 502.296,56.45 C500.318,56.45 498.693,56.169 497.424,55.608 C496.095,55.077 495.431,54.457 495.431,53.748 C495.431,53.453 495.504,53.121 495.652,52.751 C495.799,52.383 496.095,51.843 496.538,51.135 C497.365,51.843 498.294,52.397 499.329,52.796 C500.362,53.195 501.395,53.394 502.429,53.394 C503.787,53.394 504.835,53.121 505.574,52.575 C506.312,52.028 506.681,51.239 506.681,50.205 C506.681,49.29 506.356,48.559 505.706,48.012 C505.057,47.466 503.846,47.001 502.075,46.617 C499.742,46.115 498.066,45.37 497.047,44.38 C496.029,43.391 495.519,42.084 495.519,40.46 C495.519,38.66 496.228,37.22 497.645,36.141 C499.063,35.064 500.864,34.525 503.049,34.525 C504.112,34.525 505.116,34.635 506.061,34.857 C507.005,35.078 507.773,35.367 508.365,35.721 C509.368,36.282 509.871,36.858 509.871,37.448 C509.871,38.068 509.589,38.865 509.029,39.84 L508.409,39.885" id="Fill-16" fill="#FFFFFE"></path>
            <path d="M515.539,34.791 C515.805,34.761 516.071,34.746 516.336,34.746 C518.315,34.746 519.304,35.751 519.304,37.758 L519.304,51.843 C519.304,52.789 519.452,53.416 519.747,53.726 C520.042,54.036 520.603,54.191 521.43,54.191 L521.43,55.785 C520.81,55.992 519.997,56.096 518.995,56.096 C518.197,56.096 517.547,55.963 517.045,55.697 C516.543,55.431 516.166,55.01 515.916,54.435 C515.664,53.859 515.539,52.892 515.539,51.534 L515.539,34.791 Z M514.875,28.191 C514.875,27.453 515.104,26.847 515.562,26.375 C516.019,25.903 516.587,25.666 517.267,25.666 C517.946,25.666 518.514,25.903 518.972,26.375 C519.43,26.847 519.659,27.453 519.659,28.191 C519.659,28.87 519.43,29.439 518.972,29.896 C518.514,30.354 517.946,30.583 517.267,30.583 C516.587,30.583 516.019,30.354 515.562,29.896 C515.104,29.439 514.875,28.87 514.875,28.191 Z" id="Fill-17" fill="#FFFFFE"></path>
            <path d="M526.17,28.634 C526.436,28.605 526.702,28.59 526.967,28.59 C528.945,28.59 529.935,29.594 529.935,31.601 L529.935,35.012 L536.535,35.012 L536.535,38.201 L529.935,38.201 L529.935,49.629 C529.935,52.051 530.894,53.261 532.814,53.261 C533.316,53.261 533.811,53.157 534.297,52.951 C534.785,52.744 535.235,52.479 535.649,52.154 C536.062,51.829 536.342,51.563 536.491,51.356 C537.346,52.419 537.775,53.246 537.775,53.837 C537.775,54.251 537.494,54.678 536.933,55.121 C536.372,55.564 535.685,55.903 534.873,56.14 C534.061,56.376 533.183,56.494 532.238,56.494 C529.285,56.494 527.411,55.387 526.613,53.172 C526.318,52.346 526.17,51.076 526.17,49.363 L526.17,28.634" id="Fill-18" fill="#FFFFFE"></path>
            <path d="M548.183,55.785 L546.677,55.785 L539.501,35.234 C540.151,34.997 540.8,34.879 541.451,34.879 C542.838,34.879 543.812,35.721 544.373,37.404 L549.246,52.508 L554.119,37.802 C554.65,35.854 555.698,34.879 557.263,34.879 C557.883,34.879 558.429,35.012 558.902,35.278 L550.84,58.709 C550.191,60.598 549.54,62.016 548.892,62.961 C548.242,63.905 547.466,64.607 546.566,65.065 C545.665,65.522 544.595,65.752 543.355,65.752 C542.115,65.752 541.147,65.574 540.454,65.22 C539.759,64.865 539.413,64.378 539.413,63.758 C539.413,63.05 539.752,62.237 540.432,61.322 C541.376,62.09 542.351,62.474 543.355,62.474 C544.33,62.474 545.133,62.119 545.769,61.411 C546.404,60.702 547.001,59.491 547.563,57.779 L548.183,55.785" id="Fill-19" fill="#FFFFFE"></path>
            <path d="M183.062,124.939 C187.647,124.939 190.858,124.274 192.698,122.944 C194.537,121.615 195.457,119.393 195.457,116.28 C195.457,110.677 191.807,107.875 184.506,107.875 L178.309,107.875 L178.309,124.939 L183.062,124.939 Z M192.826,91.15 C192.826,88.718 192.004,86.935 190.364,85.802 C188.722,84.671 186.147,84.104 182.638,84.104 C181.562,84.104 180.685,84.134 180.006,84.189 C179.327,84.247 178.761,84.303 178.309,84.359 L178.309,100.149 L183.912,100.149 C186.628,100.149 188.793,99.33 190.406,97.687 C192.019,96.047 192.826,93.867 192.826,91.15 Z M207.343,116.704 C207.343,122.477 205.503,126.694 201.825,129.353 C198.145,132.014 192.146,133.344 183.827,133.344 L166.678,133.344 L166.678,76.889 C172.733,76.266 177.94,75.954 182.299,75.954 C190.109,75.954 195.797,77.1 199.362,79.393 C202.928,81.685 204.711,85.378 204.711,90.471 C204.711,92.566 204.342,94.462 203.607,96.16 C202.871,97.857 201.838,99.33 200.509,100.574 C199.178,101.819 197.72,102.725 196.137,103.291 C203.607,105.328 207.343,109.8 207.343,116.704 Z" id="Fill-20" fill="#FFFFFE"></path>
            <path d="M241.215,113.138 C241.215,104.932 238.47,100.829 232.98,100.829 C230.207,100.829 228.084,101.932 226.613,104.139 C225.141,106.346 224.406,109.375 224.406,113.223 C224.406,117.299 225.128,120.439 226.571,122.646 C228.014,124.854 230.094,125.958 232.81,125.958 C238.413,125.958 241.215,121.685 241.215,113.138 Z M252.846,113.054 C252.846,117.525 252.039,121.402 250.426,124.684 C248.813,127.968 246.521,130.444 243.55,132.112 C240.579,133.781 236.998,134.617 232.81,134.617 C226.472,134.617 221.562,132.721 218.081,128.929 C214.6,125.137 212.86,119.93 212.86,113.308 C212.86,109.008 213.723,105.23 215.45,101.974 C217.175,98.72 219.553,96.244 222.581,94.547 C225.608,92.848 229.131,92 233.15,92 C239.488,92 244.356,93.854 247.752,97.56 C251.148,101.267 252.846,106.431 252.846,113.054 Z" id="Fill-21" fill="#FFFFFE"></path>
            <path d="M261.759,127.231 C261.136,125.363 260.825,122.93 260.825,119.93 L260.825,80.539 L262.099,80.369 C263.117,80.256 263.994,80.199 264.73,80.199 C269.824,80.199 272.371,82.464 272.371,86.991 L272.371,92.933 L284.256,92.933 L284.256,101.593 L272.371,101.593 L272.371,119.761 C272.371,123.722 273.984,125.703 277.21,125.703 C278.341,125.703 279.502,125.421 280.69,124.854 C281.879,124.289 282.898,123.581 283.747,122.731 C284.766,124.204 285.458,125.363 285.827,126.213 C286.194,127.061 286.378,127.825 286.378,128.505 C286.378,129.58 285.784,130.599 284.596,131.56 C283.407,132.524 281.892,133.273 280.054,133.81 C278.214,134.347 276.219,134.617 274.069,134.617 C267.672,134.617 263.57,132.155 261.759,127.231" id="Fill-22" fill="#FFFFFE"></path>
            <path d="M315.242,113.648 C314.846,113.648 314.449,113.648 314.054,113.648 C313.657,113.648 313.261,113.678 312.865,113.733 C308.79,114.016 305.847,114.766 304.036,115.982 C302.224,117.2 301.319,118.911 301.319,121.119 C301.319,122.93 301.829,124.332 302.848,125.321 C303.866,126.312 305.337,126.806 307.262,126.806 C309.243,126.806 311.068,126.312 312.738,125.321 C314.407,124.332 315.242,123.326 315.242,122.307 L315.242,113.648 Z M326.109,123.496 C326.109,127.91 326.759,131.166 328.061,133.259 C326.079,133.994 324.212,134.362 322.458,134.362 C320.534,134.362 319.033,133.994 317.959,133.259 C316.883,132.524 316.176,131.363 315.836,129.778 C314.421,131.306 312.653,132.467 310.531,133.259 C308.408,134.051 306.044,134.447 303.442,134.447 C299.592,134.447 296.466,133.357 294.061,131.179 C291.655,129.001 290.453,125.929 290.453,121.968 C290.453,113.195 297.385,108.441 311.252,107.705 C312.157,107.649 313.43,107.62 315.072,107.62 L315.072,106.093 C315.072,103.999 314.506,102.484 313.374,101.551 C312.242,100.616 310.346,100.149 307.686,100.149 C305.932,100.149 304.177,100.404 302.423,100.914 C300.668,101.423 298.404,102.47 295.631,104.054 C294.895,103.206 294.273,102.187 293.764,100.999 C293.254,99.81 293,98.905 293,98.282 C293,97.208 293.834,96.174 295.504,95.183 C297.173,94.193 299.253,93.415 301.744,92.848 C304.234,92.284 306.809,92 309.469,92 C315.355,92 319.6,93.218 322.204,95.65 C324.806,98.084 326.109,102.047 326.109,107.535 L326.109,123.496 Z" id="Fill-23" fill="#FFFFFE"></path>
            <path d="M348.606,133.344 L336.975,133.344 L336.975,93.188 L337.994,93.018 C338.899,92.906 339.832,92.848 340.795,92.848 C344.983,92.848 347.388,94.321 348.012,97.263 C350.614,93.755 354.774,92 360.492,92 C364.113,92 366.971,92.708 369.066,94.122 C371.159,95.537 372.517,97.717 373.141,100.659 C373.593,102.64 373.82,105.555 373.82,109.403 L373.82,133.344 L362.274,133.344 L362.274,109.913 C362.274,107.253 362.09,105.386 361.722,104.309 C361.354,103.235 360.732,102.456 359.855,101.974 C358.977,101.495 357.774,101.253 356.246,101.253 C354.095,101.253 352.284,101.692 350.813,102.569 C349.341,103.447 348.606,104.536 348.606,105.838 L348.606,133.344" id="Fill-24" fill="#FFFFFE"></path>
            <path d="M396.232,133.853 C395.834,134.079 394.476,134.192 392.157,134.192 C389.496,134.192 387.585,133.626 386.426,132.495 C385.265,131.363 384.686,129.58 384.686,127.146 L384.686,93.188 C384.856,93.133 385.365,93.06 386.213,92.976 C387.063,92.891 387.855,92.848 388.591,92.848 C393.685,92.848 396.232,95.085 396.232,99.556 L396.232,133.853 Z M396.316,79.605 C396.316,81.36 395.722,82.818 394.534,83.977 C393.345,85.137 391.872,85.718 390.119,85.718 C388.307,85.718 386.822,85.137 385.662,83.977 C384.501,82.818 383.921,81.36 383.921,79.605 C383.921,77.851 384.501,76.379 385.662,75.19 C386.822,74.002 388.307,73.407 390.119,73.407 C391.872,73.407 393.345,74.002 394.534,75.19 C395.722,76.379 396.316,77.851 396.316,79.605 Z" id="Fill-25" fill="#FFFFFE"></path>
            <path d="M427.388,126.043 C429.311,126.043 431.123,125.661 432.821,124.896 C434.519,124.133 435.848,123.156 436.811,121.968 C437.491,122.704 438.14,123.722 438.764,125.024 C439.386,126.326 439.698,127.401 439.698,128.25 C439.698,129.553 439.103,130.656 437.914,131.56 C435.084,133.711 431.038,134.787 425.775,134.787 C421.585,134.787 417.935,133.924 414.824,132.197 C411.71,130.471 409.361,128.01 407.777,124.811 C406.192,121.615 405.4,117.722 405.4,113.138 C405.4,108.611 406.262,104.791 407.989,101.678 C409.715,98.566 412.163,96.174 415.332,94.504 C418.501,92.836 421.982,92 425.775,92 C428.038,92 430.16,92.241 432.142,92.722 C434.122,93.203 435.792,93.896 437.151,94.802 C438.225,95.48 438.976,96.132 439.401,96.754 C439.825,97.377 440.038,98.112 440.038,98.961 C440.038,99.755 439.783,100.73 439.273,101.889 C438.764,103.051 438.113,104.112 437.321,105.073 C436.188,103.829 434.731,102.796 432.949,101.974 C431.165,101.155 429.34,100.744 427.473,100.744 C424.077,100.744 421.5,101.777 419.747,103.843 C417.993,105.909 417.116,108.951 417.116,112.969 C417.116,117.214 417.978,120.454 419.704,122.689 C421.43,124.926 423.992,126.043 427.388,126.043" id="Fill-26" fill="#FFFFFE"></path>
            <path d="M489.36,111.101 L489.36,102.442 L509.989,102.442 L509.989,127.91 C508.913,129.213 507.3,130.401 505.15,131.475 C502.998,132.552 500.608,133.372 497.976,133.938 C495.344,134.503 492.529,134.787 489.53,134.787 C483.812,134.787 478.973,133.598 475.012,131.221 C471.05,128.845 468.037,125.421 465.971,120.949 C463.904,116.478 462.872,111.158 462.872,104.989 C462.872,98.82 463.976,93.5 466.183,89.028 C468.39,84.558 471.544,81.162 475.649,78.841 C479.751,76.521 484.661,75.36 490.378,75.36 C493.49,75.36 496.449,75.827 499.249,76.761 C502.051,77.695 504.272,78.841 505.914,80.199 C507.555,81.557 508.376,82.916 508.376,84.274 C508.376,85.18 507.994,86.214 507.23,87.373 C506.466,88.534 505.46,89.652 504.216,90.726 C501.952,88.633 499.73,87.147 497.552,86.269 C495.372,85.392 493.038,84.953 490.548,84.953 C485.397,84.953 481.478,86.666 478.79,90.09 C476.101,93.514 474.757,98.424 474.757,104.819 C474.757,111.498 476.129,116.619 478.874,120.184 C481.62,123.751 485.595,125.533 490.803,125.533 C493.292,125.533 495.387,125.166 497.085,124.429 C497.82,124.09 498.471,123.695 499.038,123.241 L499.038,111.101 L489.36,111.101" id="Fill-27" fill="#FFFFFE"></path>
            <path d="M542.927,113.648 C542.531,113.648 542.134,113.648 541.739,113.648 C541.342,113.648 540.946,113.678 540.55,113.733 C536.475,114.016 533.532,114.766 531.721,115.982 C529.91,117.2 529.004,118.911 529.004,121.119 C529.004,122.93 529.514,124.332 530.533,125.321 C531.551,126.312 533.023,126.806 534.947,126.806 C536.927,126.806 538.752,126.312 540.423,125.321 C542.091,124.332 542.927,123.326 542.927,122.307 L542.927,113.648 Z M553.793,123.496 C553.793,127.91 554.444,131.166 555.747,133.259 C553.765,133.994 551.897,134.362 550.143,134.362 C548.218,134.362 546.718,133.994 545.644,133.259 C544.568,132.524 543.861,131.363 543.522,129.778 C542.106,131.306 540.338,132.467 538.215,133.259 C536.093,134.051 533.729,134.447 531.126,134.447 C527.278,134.447 524.151,133.357 521.746,131.179 C519.339,129.001 518.138,125.929 518.138,121.968 C518.138,113.195 525.07,108.441 538.937,107.705 C539.842,107.649 541.116,107.62 542.757,107.62 L542.757,106.093 C542.757,103.999 542.191,102.484 541.06,101.551 C539.927,100.616 538.032,100.149 535.372,100.149 C533.617,100.149 531.862,100.404 530.108,100.914 C528.353,101.423 526.089,102.47 523.317,104.054 C522.581,103.206 521.958,102.187 521.449,100.999 C520.94,99.81 520.685,98.905 520.685,98.282 C520.685,97.208 521.519,96.174 523.189,95.183 C524.858,94.193 526.938,93.415 529.429,92.848 C531.918,92.284 534.494,92 537.155,92 C543.04,92 547.285,93.218 549.889,95.65 C552.492,98.084 553.793,102.047 553.793,107.535 L553.793,123.496 Z" id="Fill-28" fill="#FFFFFE"></path>
            <path d="M575.697,97.178 C576.771,95.65 578.144,94.406 579.814,93.443 C581.483,92.481 583.223,92 585.036,92 C587.015,92 588.586,92.353 589.747,93.06 C590.906,93.769 591.487,94.773 591.487,96.075 C591.487,96.754 591.36,97.59 591.105,98.579 C590.85,99.57 590.511,100.589 590.086,101.636 C589.662,102.683 589.195,103.631 588.686,104.479 C587.61,103.575 586.591,102.938 585.629,102.569 C584.666,102.202 583.592,102.017 582.404,102.017 C580.706,102.017 579.247,102.526 578.032,103.546 C576.814,104.564 576.206,105.782 576.206,107.196 L576.206,133.344 L564.661,133.344 L564.661,93.188 L565.679,93.018 C566.583,92.906 567.518,92.848 568.481,92.848 C570.404,92.848 572.003,93.218 573.277,93.952 C574.55,94.688 575.357,95.764 575.697,97.178" id="Fill-29" fill="#FFFFFE"></path>
            <path d="M605.834,113.223 C605.834,117.807 606.556,121.134 607.998,123.199 C609.442,125.265 611.692,126.298 614.748,126.298 C616.501,126.298 617.931,125.944 619.036,125.236 C620.139,124.529 620.691,123.581 620.691,122.392 L620.691,103.291 C619.955,102.555 619.021,101.947 617.889,101.466 C616.756,100.985 615.624,100.744 614.494,100.744 C608.72,100.744 605.834,104.904 605.834,113.223 Z M624.681,133.344 C623.717,133.344 622.954,133.033 622.388,132.41 C621.822,131.788 621.539,130.938 621.539,129.863 C620.407,131.221 618.836,132.311 616.828,133.132 C614.819,133.951 612.625,134.362 610.248,134.362 C605.04,134.362 601.023,132.608 598.194,129.098 C595.363,125.591 593.949,120.497 593.949,113.818 C593.949,109.178 594.641,105.23 596.029,101.974 C597.414,98.72 599.382,96.244 601.929,94.547 C604.476,92.848 607.417,92 610.758,92 C612.795,92 614.664,92.34 616.361,93.018 C618.059,93.697 619.502,94.661 620.691,95.905 L620.691,73.492 C620.803,73.437 621.298,73.365 622.176,73.28 C623.053,73.195 623.86,73.153 624.596,73.153 C629.69,73.153 632.237,75.417 632.237,79.945 L632.237,133.344 L624.681,133.344 Z" id="Fill-30" fill="#FFFFFE"></path>
            <path d="M665.684,108.893 C665.684,102.781 663.278,99.725 658.468,99.725 C656.091,99.725 654.223,100.546 652.865,102.187 C651.506,103.829 650.828,106.064 650.828,108.893 L665.684,108.893 Z M661.864,126.128 C663.732,126.128 665.33,125.873 666.661,125.363 C667.99,124.854 669.108,124.247 670.014,123.538 C670.918,122.831 671.711,122.167 672.391,121.543 C673.24,122.619 673.99,123.793 674.64,125.066 C675.29,126.34 675.617,127.345 675.617,128.08 C675.617,129.326 674.909,130.457 673.495,131.475 C672.136,132.495 670.324,133.302 668.061,133.895 C665.797,134.49 663.363,134.787 660.76,134.787 C653.855,134.787 648.548,132.891 644.842,129.098 C641.135,125.307 639.282,119.79 639.282,112.545 C639.282,108.244 640.116,104.564 641.787,101.508 C643.455,98.452 645.776,96.103 648.747,94.462 C651.719,92.821 655.043,92 658.723,92 C664.269,92 668.556,93.599 671.584,96.797 C674.612,99.994 676.126,104.394 676.126,109.998 C676.126,112.714 676.041,114.469 675.872,115.261 L650.913,115.261 C651.138,118.77 652.186,121.458 654.053,123.326 C655.921,125.193 658.524,126.128 661.864,126.128 Z" id="Fill-31" fill="#FFFFFE"></path>
            <g id="Group-35">
                <mask id="mask-2" fill="white">
                    <use xlink:href="#path-1"></use>
                </mask>
                <g id="Clip-33"></g>
                <path d="M696.246,133.344 L684.616,133.344 L684.616,93.188 L685.634,93.018 C686.539,92.906 687.473,92.848 688.436,92.848 C692.623,92.848 695.029,94.321 695.652,97.263 C698.254,93.755 702.414,92 708.131,92 C711.752,92 714.611,92.708 716.706,94.122 C718.799,95.537 720.158,97.717 720.781,100.659 C721.233,102.64 721.459,105.555 721.459,109.403 L721.459,133.344 L709.914,133.344 L709.914,109.913 C709.914,107.253 709.73,105.386 709.363,104.309 C708.994,103.235 708.372,102.456 707.495,101.974 C706.617,101.495 705.414,101.253 703.886,101.253 C701.735,101.253 699.924,101.692 698.454,102.569 C696.981,103.447 696.246,104.536 696.246,105.838 L696.246,133.344" id="Fill-32" fill="#FFFFFE" mask="url(#mask-2)"></path>
                <path d="M46.034,35.957 C46.033,35.957 46.033,35.957 46.033,35.957 C46.033,35.957 46.033,35.957 46.034,35.957 Z M137.61,137.961 C137.723,137.961 137.844,137.973 137.974,138.005 C138.367,138.098 138.667,138.429 139.081,138.921 C139.168,139.023 139.243,139.118 139.298,139.169 C139.449,139.298 139.611,139.429 139.773,139.56 C139.969,139.72 140.163,139.878 140.344,140.035 C140.821,140.45 141.398,140.842 142.009,141.257 L142.566,141.638 C143.146,142.041 143.718,142.39 144.29,142.74 C144.581,142.919 144.872,143.096 145.165,143.282 L145.253,143.337 C146.032,143.829 146.782,144.303 147.545,144.762 C147.549,144.677 147.555,144.6 147.566,144.534 C147.637,144.095 147.606,143.918 147.381,143.485 C146.87,142.5 146.083,141.395 145.222,140.455 C144.28,139.426 143.34,138.5 142.429,137.703 L142.226,137.53 C141.798,137.17 141.313,136.762 141.121,136.006 C141.121,136.002 141.12,135.998 141.121,135.997 C141.032,135.902 140.936,135.781 140.829,135.564 C140.77,135.446 140.591,135.329 140.401,135.206 C139.889,134.869 139.619,134.609 139.358,134.357 C139.209,134.213 139.051,134.06 138.841,133.887 C138.751,133.812 138.638,133.734 138.517,133.648 C138.002,133.288 137.363,132.839 137.174,132.139 C136.759,130.595 138.551,129.881 139.316,129.575 C139.323,129.572 139.33,129.569 139.338,129.566 C139.216,129.492 139.083,129.423 138.982,129.37 C138.644,129.193 138.325,129.027 138.095,128.798 C137.545,128.251 137.388,127.735 137.236,127.236 L137.143,126.94 C137.063,126.697 136.95,126.562 136.744,126.318 C136.65,126.206 136.549,126.086 136.441,125.944 C136.414,125.908 136.374,125.863 136.33,125.811 C136.022,125.453 135.301,124.612 135.982,123.956 C136.605,123.353 137.939,123.938 138.09,124.008 C138.323,124.115 138.527,124.262 138.725,124.403 C138.829,124.479 138.947,124.563 139.055,124.628 C139.021,124.551 138.989,124.471 138.962,124.393 C138.848,124.055 138.761,123.693 138.675,123.325 C138.505,122.595 138.343,121.907 137.921,121.433 C137.728,121.217 137.427,121.002 137.109,120.775 C136.361,120.241 135.43,119.577 135.271,118.375 C135.184,117.712 135.431,117.295 135.655,117.062 C136.303,116.389 137.431,116.494 138.177,116.559 C138.333,116.574 138.557,116.615 138.809,116.664 C138.964,116.694 139.201,116.74 139.426,116.773 C139.229,116.533 138.988,116.233 138.844,115.709 C138.762,115.412 138.708,115.112 138.655,114.813 C138.592,114.461 138.533,114.128 138.423,113.821 C138.223,113.26 137.918,112.755 137.565,112.399 C137.467,112.301 137.382,112.227 137.311,112.166 C136.797,111.72 136.563,111.253 137.091,110.415 C137.458,109.831 137.458,109.831 136.924,108.971 L136.86,108.87 C136.354,108.054 136.193,107.346 136.384,106.768 C136.482,106.471 136.721,106.069 137.301,105.838 C137.98,105.57 138.669,105.873 139.335,106.168 C139.887,106.412 140.315,106.582 140.58,106.512 C140.524,105.975 139.862,104.631 139.565,104.028 C139.278,103.446 139.052,102.986 138.964,102.671 L138.76,101.94 L139.492,101.744 C139.778,101.667 140.109,101.694 140.46,101.736 C140.459,101.734 140.457,101.731 140.456,101.729 L140.379,101.601 L140.321,101.214 C140.294,101.024 140.296,101.024 140.262,100.909 C140.208,100.787 140.12,100.661 140.008,100.502 C139.861,100.292 139.677,100.03 139.529,99.618 C139.334,99.076 139.163,98.649 138.868,98.073 C138.66,97.667 138.419,97.195 138.628,96.688 C138.834,96.186 139.34,96.021 139.506,95.967 C140.094,95.775 140.634,95.974 141.029,96.12 C141.22,96.19 141.437,96.27 141.531,96.26 C141.547,96.255 141.629,96.22 141.688,96.194 C141.825,96.136 142.002,96.059 142.214,96.024 C142.13,95.932 142.06,95.853 142.014,95.793 C141.609,95.269 141.387,94.75 141.172,94.247 C141.07,94.007 140.966,93.762 140.837,93.513 C140.763,93.37 140.513,93.06 140.292,92.787 C139.519,91.829 138.642,90.743 139.014,89.775 C139.146,89.431 139.486,88.991 140.352,88.854 C140.956,88.759 141.555,88.883 142.078,89.085 C141.756,88.527 141.594,88.006 141.436,87.501 C141.364,87.267 141.289,87.027 141.195,86.776 C140.946,86.114 140.555,85.497 140.141,84.844 C139.648,84.069 139.139,83.266 138.84,82.328 C138.661,81.769 138.332,80.366 139.144,79.448 C139.937,78.549 140.778,78.941 141.136,79.108 C141.156,79.117 141.177,79.127 141.199,79.137 C141.19,79.106 141.181,79.073 141.169,79.037 C141.151,78.976 141.089,78.89 141.018,78.79 C140.919,78.651 140.795,78.478 140.705,78.255 C140.612,78.023 140.578,77.799 140.55,77.619 C140.531,77.492 140.513,77.372 140.481,77.305 C140.456,77.261 140.339,77.133 140.262,77.049 C140.11,76.882 139.963,76.713 139.871,76.562 C139.66,76.215 139.425,75.829 139.29,75.51 C139.035,74.911 139.018,74.409 139.237,73.977 C139.539,73.379 140.184,73.156 140.773,73.016 C141.059,72.949 141.286,72.824 141.548,72.679 C141.782,72.55 142.047,72.404 142.367,72.3 C142.584,72.229 142.815,72.215 143.038,72.202 C143.123,72.197 143.253,72.189 143.36,72.175 C143.271,72.061 143.149,71.924 143.063,71.828 C142.83,71.569 142.59,71.3 142.46,71.006 C142.153,70.309 141.919,70.03 141.373,69.71 C141.303,69.669 141.203,69.616 141.083,69.554 C140.234,69.11 138.813,68.365 138.659,67.253 C138.611,66.907 138.665,66.39 139.193,65.89 C140.116,65.017 141.228,65.503 141.893,65.794 C141.965,65.825 142.053,65.863 142.142,65.9 C141.922,65.606 141.624,65.26 141.411,65.012 C140.506,63.963 139.652,62.972 140.31,62.139 C140.613,61.755 141.016,61.637 141.507,61.792 L141.692,61.786 L141.847,61.876 C141.85,61.878 141.852,61.879 141.856,61.881 L142.097,61.703 L142.288,61.679 C142.575,61.639 142.809,61.704 142.964,61.745 C143.073,61.774 143.109,61.78 143.134,61.776 C143.399,61.727 143.93,61.551 144.241,61.422 C144.557,61.292 144.858,60.968 145.177,60.624 C145.279,60.515 145.383,60.404 145.49,60.294 C144.209,60.012 142.835,59.518 141.275,58.783 C140.6,58.465 140.209,58.047 139.865,57.678 C139.663,57.463 139.473,57.26 139.226,57.075 C139.055,56.945 138.886,56.837 138.718,56.73 C138.448,56.556 138.18,56.383 137.907,56.151 C137.767,56.033 137.589,55.9 137.4,55.758 C136.508,55.086 135.584,54.391 135.847,53.524 C136.094,52.71 137.151,52.651 137.55,52.628 C137.676,52.621 137.812,52.624 137.951,52.631 C138.081,52.636 138.257,52.643 138.323,52.622 C138.334,52.615 138.387,52.574 138.424,52.544 C138.547,52.446 138.714,52.312 138.957,52.228 C139.074,52.188 139.188,52.161 139.298,52.143 C138.732,51.376 137.646,50.98 136.592,50.596 C136.175,50.444 135.769,50.296 135.401,50.13 C134.874,49.893 134.257,49.537 134.164,48.886 C134.131,48.656 134.147,48.21 134.63,47.797 C135.095,47.399 135.692,47.398 136.219,47.396 C136.519,47.396 136.893,47.395 137.029,47.296 C137.078,47.26 137.134,47.197 137.2,47.126 C137.288,47.028 137.396,46.909 137.54,46.796 C137.312,46.562 137.142,46.324 136.99,46.11 C136.765,45.794 136.587,45.544 136.268,45.365 C135.933,45.176 135.572,45.173 135.116,45.17 C134.733,45.167 134.301,45.164 133.83,45.044 C132.916,44.811 132.327,44.427 132.079,43.903 C131.911,43.546 131.915,43.142 132.093,42.766 C132.212,42.512 132.397,42.339 132.584,42.211 C131.756,42.042 130.614,41.731 130.789,40.728 C130.893,40.132 131.477,39.877 132.445,39.704 C132.372,39.642 132.3,39.577 132.23,39.507 L132.1,39.376 C131.831,39.103 131.577,38.846 131.305,38.744 C131.087,38.662 130.804,38.654 130.504,38.645 C129.867,38.626 128.801,38.595 128.441,37.412 C128.361,37.149 128.379,36.93 128.39,36.8 C128.099,36.51 127.517,36.255 127.092,36.069 L126.838,35.956 C126.719,35.902 126.57,35.854 126.413,35.802 C125.792,35.595 125.018,35.338 124.79,34.626 C124.7,34.343 124.674,33.894 125.065,33.358 C125.179,33.203 125.32,33.092 125.475,33.011 C125.421,32.984 125.369,32.954 125.319,32.922 C125.101,32.779 124.896,32.618 124.693,32.457 C124.419,32.24 124.161,32.035 123.886,31.91 C123.78,31.874 123.336,31.828 123.012,31.795 C121.68,31.658 120.302,31.515 120.107,30.484 C120.02,30.016 120.281,29.652 120.629,29.338 C120.286,29.249 119.985,29.174 119.893,29.16 C119.672,29.134 119.407,29.187 119.099,29.248 C118.688,29.329 118.223,29.42 117.706,29.342 C117.305,29.282 116.586,29.175 116.292,28.509 C116.116,28.109 116.191,27.799 116.285,27.61 C116.502,27.176 116.952,27.071 117.221,27.008 C117.288,26.992 117.36,26.98 117.42,26.954 C117.465,26.935 117.629,26.869 117.851,26.781 C117.965,26.736 118.131,26.67 118.315,26.595 C118.23,26.492 118.156,26.38 118.086,26.276 C118.038,26.202 117.992,26.126 117.945,26.076 C117.366,25.552 116.278,25.149 115.558,24.882 C115.505,24.865 115.426,24.853 115.342,24.838 C114.968,24.768 114.545,24.69 114.269,24.364 C114.145,24.216 113.816,23.826 113.941,23.335 C114.014,23.051 114.195,22.886 114.356,22.788 C114.261,22.726 114.021,22.62 113.552,22.567 C113.355,22.545 113.154,22.551 112.953,22.553 C112.434,22.562 111.847,22.57 111.253,22.269 C110.723,22.001 110.18,21.433 110.161,20.768 C110.148,20.303 110.394,19.889 110.835,19.634 C111.227,19.408 111.633,19.499 111.901,19.559 C111.921,19.563 111.942,19.568 111.962,19.573 C112.064,19.478 112.188,19.378 112.365,19.301 C112.41,19.281 112.46,19.257 112.515,19.229 C112.425,19.172 112.343,19.122 112.279,19.088 C111.975,18.925 111.755,18.902 111.242,18.862 C110.754,18.824 109.138,18.637 108.098,17.758 C107.734,17.449 107.536,17.097 107.51,16.712 C107.469,16.094 107.873,15.646 108.199,15.287 C108.31,15.163 108.427,15.039 108.516,14.905 C108.578,14.809 108.633,14.706 108.688,14.603 C108.727,14.531 108.767,14.46 108.807,14.39 C107.988,14.324 107.158,14.086 106.269,13.662 C105.445,13.269 104.898,13.022 104.085,12.899 C103.612,12.827 103.257,12.771 103.016,12.713 C102.776,12.745 102.392,12.782 102.078,12.482 C101.843,12.258 101.745,11.935 101.787,11.522 C101.831,11.08 102.07,10.776 102.496,10.618 C102.497,10.611 102.499,10.604 102.501,10.596 C102.118,10.608 101.74,10.552 101.457,10.499 C100.98,10.409 100.618,10.186 100.298,9.989 C100.071,9.85 99.876,9.73 99.682,9.682 C99.698,9.689 99.665,9.695 99.631,9.699 C99.388,9.729 98.735,9.802 98.34,9.137 C98.218,8.931 97.891,8.198 98.78,7.362 C98.912,7.238 99.068,7.148 99.231,7.073 C99.115,7.065 99.011,7.058 98.927,7.047 C98.627,7.009 98.306,7.018 97.966,7.029 C97.38,7.045 96.716,7.065 96.046,6.825 C95.782,6.73 95.551,6.626 95.332,6.526 C94.871,6.316 94.569,6.177 94.089,6.219 C94.033,6.223 93.95,6.241 93.852,6.26 C93.227,6.378 91.926,6.626 91.598,5.587 C91.507,5.304 91.545,5.063 91.628,4.87 C91.604,4.867 91.582,4.865 91.562,4.863 C91.406,4.845 91.265,4.828 91.16,4.805 L90.71,4.703 C89.985,4.536 89.235,4.363 88.571,4.458 C88.506,4.469 88.309,4.547 88.177,4.598 C87.563,4.839 86.418,5.291 85.863,4.331 C85.406,3.544 85.856,2.735 86.153,2.199 C86.252,2.02 86.402,1.751 86.412,1.651 C86.264,1.581 85.429,1.628 85.202,1.814 C85.063,1.938 84.955,2.052 84.857,2.155 C84.535,2.491 84.203,2.838 83.416,3.058 C83.002,3.175 82.616,3.195 82.274,3.213 C82.165,3.219 82.059,3.224 81.956,3.234 C81.806,3.247 81.503,3.368 81.259,3.465 C80.636,3.712 79.931,3.991 79.316,3.679 C79.091,3.564 78.796,3.324 78.669,2.829 C78.575,2.463 78.661,2.086 78.755,1.719 C78.714,1.743 78.674,1.767 78.633,1.792 C78.347,1.966 77.992,2.181 77.553,2.263 C77.412,2.289 77.273,2.307 77.136,2.324 C76.876,2.358 76.671,2.384 76.504,2.471 C76.437,2.507 76.35,2.598 76.257,2.695 C76.028,2.933 75.682,3.294 75.094,3.367 L74.324,3.462 L74.255,2.689 C74.211,2.185 74.125,1.941 74.073,1.835 C73.985,1.874 73.823,1.97 73.574,2.197 C73.473,2.289 73.379,2.383 73.287,2.474 C72.963,2.796 72.595,3.16 72.03,3.391 C71.676,3.535 71.297,3.579 70.963,3.618 C70.655,3.654 70.336,3.691 70.187,3.795 C70.026,3.908 69.929,4.064 69.772,4.329 C69.555,4.697 69.286,5.155 68.695,5.486 C68.459,5.618 68.22,5.741 67.98,5.864 C67.393,6.164 66.837,6.449 66.39,6.862 C66.327,6.92 66.247,7.026 66.149,7.147 C65.658,7.753 64.744,8.88 63.707,8.309 C63.303,8.087 63.195,7.649 63.108,7.298 C63.09,7.225 63.076,7.155 63.056,7.103 C62.971,6.969 62.651,6.655 62.531,6.593 C62.029,6.342 61.486,7.08 60.722,8.451 C60.52,8.812 60.336,9.137 60.17,9.368 C59.819,9.857 59.407,10.286 59.008,10.701 C58.64,11.085 58.291,11.447 58,11.842 L57.538,12.46 C57.048,13.112 56.54,13.786 56.127,14.47 L55.872,14.892 C54.978,16.369 54.133,17.764 53.402,19.27 C53.234,19.614 53.106,19.985 52.97,20.379 C52.803,20.862 52.63,21.362 52.372,21.844 L52.311,21.958 C51.911,22.701 51.647,23.193 51.445,23.961 C51.437,23.99 51.342,24.225 51.263,24.405 L51.201,24.546 C51.088,24.87 51.002,25.029 50.925,25.16 C50.888,25.283 50.881,25.323 50.876,25.356 C50.865,25.444 50.861,25.508 50.764,25.798 C50.709,25.961 50.638,26.131 50.568,26.295 C50.508,26.436 50.447,26.571 50.417,26.687 C50.37,26.874 50.353,27.078 50.332,27.283 C50.306,27.549 50.277,27.816 50.217,28.069 C50.116,28.499 49.968,28.892 49.825,29.272 C49.706,29.588 49.586,29.903 49.504,30.231 C49.409,30.612 49.333,30.981 49.259,31.345 C49.113,32.056 48.963,32.79 48.682,33.561 C48.571,33.863 48.494,34.156 48.417,34.442 C48.242,35.097 48.06,35.775 47.573,36.463 C47.322,36.817 46.731,37.641 45.771,37.394 L45.491,37.322 L45.332,37.079 C45.077,36.691 44.746,36.343 44.32,36.015 C26.858,22.606 6.938,17.781 6.739,17.734 C5.264,17.264 2.933,16.813 2.195,17.24 C1.754,17.492 1.637,18.901 1.575,19.658 C1.56,19.826 1.547,19.987 1.533,20.135 C1.874,20.263 2.865,20.51 5.5,20.575 C16.638,20.849 40.855,32.79 44.372,38.608 C44.439,38.718 44.511,38.811 44.584,38.893 L44.71,39.037 L44.753,39.224 C44.921,39.975 44.495,40.515 44.118,40.992 L44.041,41.089 C43.009,42.403 42.029,43.573 40.479,44.588 C40.166,44.793 39.842,44.981 39.518,45.169 C39.181,45.363 38.844,45.557 38.523,45.774 C38.42,45.844 38.319,45.937 38.217,46.029 C38.046,46.181 37.853,46.354 37.631,46.484 C37.524,46.547 37.383,46.613 37.253,46.671 C37.194,46.698 37.139,46.721 37.101,46.743 L37.051,46.805 C36.943,46.91 36.814,47.033 36.7,47.124 C36.427,47.341 36.139,47.541 35.85,47.742 C35.592,47.921 35.332,48.1 35.087,48.294 C34.88,48.459 34.769,48.572 34.651,48.69 C34.546,48.796 34.437,48.905 34.281,49.043 C34.172,49.139 33.912,49.344 33.732,49.485 L33.608,49.583 C33.467,49.696 33.343,49.827 33.217,49.957 C33.073,50.105 32.928,50.253 32.77,50.388 C32.303,50.785 31.835,51.17 31.372,51.551 C30.016,52.666 28.735,53.719 27.573,55.011 C26.771,55.904 25.94,56.781 25.104,57.666 C24.498,58.305 23.89,58.948 23.286,59.604 C23.145,59.757 23.012,59.932 22.878,60.107 C22.676,60.369 22.468,60.641 22.224,60.877 C22.134,60.964 22.072,61.042 22.008,61.119 L21.868,61.293 C21.794,61.386 21.72,61.479 21.629,61.581 L21.227,62.039 C20.636,62.723 20.023,63.43 19.242,63.983 C18.875,64.242 18.488,64.477 18.1,64.712 C17.645,64.988 17.216,65.248 16.829,65.544 C16.79,65.574 16.749,65.609 16.711,65.644 C16.848,65.732 16.989,65.858 17.109,66.045 C17.647,66.888 17.023,67.844 16.611,68.477 L16.5,68.648 C16.09,69.294 15.711,69.942 15.329,70.592 C15.113,70.962 14.895,71.333 14.672,71.704 C14.467,72.046 14.244,72.357 14.023,72.664 C13.729,73.072 13.451,73.458 13.246,73.893 C13.114,74.172 12.969,74.443 12.823,74.714 C12.576,75.174 12.343,75.608 12.186,76.069 C11.906,76.892 11.665,78.048 11.656,78.677 C11.855,78.434 12.191,78.055 12.714,78.101 C13.284,78.152 13.577,78.675 13.672,78.846 C14.01,79.451 13.897,80.356 13.714,81.476 C13.68,81.684 13.649,81.868 13.635,82.004 C13.519,83.166 13.25,84.343 12.857,85.407 C12.785,85.603 12.692,85.809 12.596,86.021 C12.31,86.647 12.13,87.092 12.263,87.424 C12.32,87.359 12.378,87.29 12.426,87.233 L12.53,87.11 L12.528,87.075 C12.849,86.288 13.344,86.203 13.706,86.268 C14.576,86.429 14.627,87.442 14.646,87.823 C14.723,88.963 14.417,89.776 14.094,90.636 L14.049,90.757 C13.772,91.498 13.825,92.249 13.899,93.109 C13.961,93.087 14.027,93.064 14.097,93.044 C14.73,92.857 15.171,93.021 15.429,93.191 C16.031,93.59 16.196,94.357 16.277,95.056 C16.377,95.918 16.278,96.743 16.181,97.54 C16.176,97.586 16.17,97.633 16.164,97.679 C16.376,97.53 16.606,97.413 16.862,97.37 C18.446,97.093 18.822,99.163 18.982,100.042 L19.032,100.303 C19.186,101.034 19.02,101.583 18.836,102.084 L18.794,102.196 C18.69,102.476 18.69,102.476 18.738,102.786 C18.775,103.029 18.821,103.266 18.867,103.501 C18.964,104.009 19.065,104.533 19.087,105.111 L19.099,105.097 C19.597,104.548 20.161,103.925 20.998,103.589 C21.213,103.501 21.869,103.237 22.43,103.601 C22.995,103.969 23.019,104.638 23.04,105.229 C23.045,105.365 23.05,105.506 23.062,105.643 C23.1,106.07 23.143,106.565 23.236,106.901 C23.254,106.96 23.267,106.999 23.304,107.165 L23.311,107.196 C23.339,107.247 23.421,107.335 23.494,107.413 C23.637,107.568 23.816,107.761 23.941,108.018 C24.239,108.629 24.153,109.345 24.077,109.976 C24.052,110.187 24.012,110.516 24.017,110.757 C24.174,110.479 24.35,110.095 24.474,109.825 C24.968,108.747 25.435,107.728 26.337,107.579 C26.656,107.525 27.138,107.573 27.63,108.093 C28.387,108.891 28.32,109.928 28.271,110.684 C28.26,110.859 28.248,111.03 28.247,111.194 C28.246,111.423 28.223,111.778 28.197,112.166 C28.191,112.241 28.186,112.327 28.18,112.419 C28.464,111.911 28.967,111.413 29.903,111.598 C30.266,111.67 30.564,111.879 30.742,112.186 C31.139,112.873 30.815,113.83 30.622,114.402 L30.571,114.557 C30.302,115.422 30.161,116.099 30.289,116.811 C30.307,116.911 30.326,117.001 30.345,117.082 C30.352,117.061 30.36,117.041 30.368,117.019 C30.566,116.485 31.02,115.226 32.169,115.438 C32.779,115.548 32.995,116.052 33.086,116.267 L33.179,116.385 L33.241,116.592 C33.248,116.616 33.255,116.64 33.263,116.664 C33.266,116.664 33.268,116.664 33.27,116.665 L33.565,116.683 L33.767,116.898 C34.271,117.431 34.561,118.832 34.569,119.287 C34.578,119.849 34.427,120.408 34.28,120.947 C34.259,121.024 34.238,121.101 34.217,121.179 C34.682,120.734 35.34,120.334 36.028,120.219 C36.622,120.119 37.149,120.249 37.556,120.595 C38.292,121.223 38.243,122.498 38.207,123.428 C38.199,123.614 38.192,123.779 38.196,123.902 C38.228,124.862 38.465,125.389 38.962,126.286 C39.266,126.836 39.405,127.311 39.54,127.771 C39.572,127.883 39.604,127.996 39.641,128.112 C39.946,127.481 40.703,126.835 41.525,126.516 C42.163,126.267 42.755,126.257 43.238,126.484 C43.64,126.675 44.153,127.151 44.567,129.172 C44.592,129.291 44.614,129.453 44.639,129.639 C44.663,129.82 44.717,130.228 44.8,130.554 C44.866,130.418 44.927,130.28 44.973,130.179 C45.121,129.848 45.249,129.564 45.403,129.355 C45.871,128.72 46.384,128.443 46.931,128.525 C47.918,128.676 48.342,129.905 48.751,131.094 C48.88,131.468 49.075,132.033 49.181,132.166 C49.219,132.209 49.252,132.242 49.281,132.267 C49.387,131.947 49.556,131.504 50.056,131.413 C51.041,131.246 51.399,132.405 51.689,133.345 C51.762,133.581 51.82,133.794 51.88,133.907 C52.047,134.146 52.395,134.369 52.764,134.604 C53.122,134.834 53.528,135.093 53.869,135.448 C53.996,135.581 54.152,135.796 54.325,136.04 C54.513,136.306 54.953,136.93 55.167,136.995 C55.167,136.907 55.173,136.378 55.176,136.123 C55.181,135.595 55.187,135.048 55.463,134.594 C55.758,134.108 56.151,133.936 56.429,133.878 C57.208,133.709 57.962,134.236 58.366,134.517 L58.548,134.643 C59.315,135.176 60.184,135.778 60.739,136.587 C60.961,136.91 61.099,137.212 61.221,137.477 C61.4,137.869 61.519,138.127 61.847,138.363 C61.96,138.445 62.071,138.519 62.18,138.593 C62.424,138.758 62.673,138.925 62.911,139.138 C62.897,138.472 63.055,137.703 63.949,137.279 C65.306,136.637 66.781,137.484 67.578,138.541 C67.582,138.546 67.585,138.551 67.589,138.555 C67.606,138.534 67.625,138.513 67.645,138.494 C68.495,137.628 70.156,138.693 70.831,139.191 C71.392,139.605 71.713,140.174 71.996,140.676 C72.213,141.06 72.418,141.424 72.693,141.652 C72.975,141.885 73.362,142.045 73.771,142.214 C73.913,142.272 74.053,142.33 74.189,142.391 C74.277,142.43 74.379,142.487 74.487,142.553 C74.383,142.285 74.296,142.027 74.275,141.777 C74.193,140.834 74.492,139.912 74.827,139.055 C75.093,138.382 75.147,138.299 75.187,138.238 L75.23,138.147 C75.489,137.407 76.118,137.514 76.577,137.592 C77.746,137.789 79.235,139.413 79.571,139.838 C80.132,140.549 80.363,140.84 81.051,141.137 C81.193,141.198 81.436,141.334 81.719,141.498 C81.888,141.595 82.173,141.76 82.444,141.901 C82.429,141.821 82.413,141.743 82.4,141.67 C82.161,140.438 81.834,138.751 82.864,137.899 C84.275,136.729 85.902,138.031 86.597,138.586 C86.74,138.701 86.944,138.892 87.176,139.114 C87.331,139.262 87.589,139.508 87.842,139.729 C87.803,139.635 87.765,139.543 87.73,139.46 C87.25,138.32 86.653,136.901 87.723,136.187 C88.973,135.355 90.568,137.022 91.026,137.554 C91.413,138.001 91.632,138.485 91.827,138.913 C92.038,139.379 92.221,139.781 92.581,140.074 C92.968,140.389 93.458,140.573 93.977,140.766 C94.42,140.931 94.878,141.103 95.322,141.37 C95.519,141.489 95.709,141.622 95.888,141.747 C95.919,141.769 95.953,141.793 95.989,141.817 L96.002,141.5 C96.084,139.353 96.278,137.253 97.652,137.204 C98.238,137.207 98.794,137.634 99.495,138.274 C99.645,138.412 99.775,138.535 99.869,138.6 C100.009,138.698 100.233,138.899 100.489,139.134 C100.705,139.333 101.102,139.696 101.37,139.888 C101.413,139.66 101.423,139.305 101.429,139.108 C101.44,138.744 101.45,138.429 101.538,138.163 C101.755,137.511 102.176,137.017 102.755,136.738 C103.404,136.423 104.198,136.409 104.987,136.695 C105.328,136.819 105.63,136.97 105.922,137.118 C106.276,137.297 106.581,137.451 106.92,137.52 C107.767,137.695 108.536,138.115 109.281,138.52 C109.517,138.649 109.754,138.779 109.993,138.899 L110.117,138.965 C110.26,139.042 110.388,139.107 110.501,139.165 C110.442,139.032 110.38,138.905 110.322,138.802 C110.157,138.502 109.986,138.182 109.835,137.898 C109.809,137.851 109.668,137.588 109.629,137.521 L110.271,137.139 L110.265,137.126 L109.56,137.386 L109.504,137.239 C109.467,137.142 109.423,137.028 109.383,136.901 L109.318,136.725 L109.33,136.72 C109.177,136.132 109.167,135.351 110.089,134.794 C111.228,134.106 112.134,134.73 112.674,135.102 C112.828,135.209 112.98,135.317 113.142,135.395 C113.21,135.429 113.257,135.447 113.289,135.459 C113.297,135.418 113.305,135.372 113.311,135.336 C113.356,135.062 113.424,134.648 113.791,134.393 C114.634,133.806 115.675,134.536 116.512,135.121 C116.712,135.261 116.887,135.388 117.014,135.452 C117.095,135.491 117.243,135.577 117.426,135.683 C117.522,135.74 117.677,135.83 117.844,135.925 C117.856,135.499 117.977,135.22 118.085,134.97 C118.115,134.901 118.148,134.827 118.181,134.741 C118.244,134.578 118.278,134.393 118.316,134.215 C118.431,133.662 118.665,132.543 119.891,132.553 C121.101,132.595 122.275,133.493 123.047,134.239 C123.219,134.405 123.382,134.545 123.529,134.657 C123.523,134.642 123.517,134.629 123.51,134.615 C123.223,133.976 123.045,133.564 123.007,133.22 C122.911,132.355 123.1,131.731 123.554,131.414 C123.768,131.264 124.228,131.064 124.894,131.396 C125.536,131.716 125.837,132.411 126.079,132.97 C126.17,133.18 126.264,133.398 126.347,133.52 C126.903,134.345 128.681,135.699 129.116,135.524 C129.114,135.524 129.174,135.468 129.219,135.251 C129.238,135.164 129.203,134.895 129.183,134.734 C129.115,134.21 129.031,133.556 129.535,133.14 C129.86,132.874 130.296,132.828 130.832,133.007 C131.81,133.332 133.022,134.816 133.362,135.381 C133.412,135.464 133.454,135.552 133.493,135.642 C133.732,135.387 134.103,135.074 134.593,135.114 C135.186,135.175 135.479,135.684 135.789,136.224 C135.976,136.55 136.115,136.881 136.248,137.201 C136.389,137.537 136.521,137.854 136.693,138.122 C136.716,138.159 136.738,138.19 136.757,138.218 C136.952,138.102 137.237,137.961 137.61,137.961 Z M148.414,147 L147.831,146.668 C146.67,146.006 145.592,145.326 144.452,144.605 L144.364,144.55 C144.077,144.369 143.792,144.194 143.507,144.019 C142.911,143.655 142.316,143.29 141.711,142.871 L141.165,142.498 C140.545,142.076 139.904,141.64 139.359,141.167 C139.19,141.019 139.01,140.873 138.828,140.725 C138.656,140.586 138.483,140.446 138.317,140.304 C138.228,140.228 138.088,140.07 137.933,139.886 C137.846,139.782 137.684,139.591 137.574,139.48 C137.534,139.5 137.486,139.529 137.45,139.553 C136.662,140.045 136.018,139.851 135.43,138.931 C135.187,138.554 135.023,138.159 134.864,137.778 C134.749,137.504 134.637,137.228 134.489,136.972 C134.479,136.954 134.466,136.932 134.452,136.907 C134.32,137.254 133.992,137.574 133.222,137.397 C132.495,137.234 132.275,136.655 132.157,136.344 C132.133,136.279 132.112,136.213 132.078,136.155 C131.801,135.696 131.143,134.973 130.68,134.622 C130.718,134.92 130.752,135.25 130.688,135.557 C130.463,136.635 129.782,136.923 129.396,136.998 C127.751,137.319 125.525,134.985 125.103,134.36 C124.942,134.122 124.82,133.839 124.702,133.566 C124.658,133.465 124.603,133.339 124.545,133.216 C124.622,133.432 124.776,133.773 124.878,133.999 C125.272,134.873 125.489,135.355 125.265,135.813 C125.083,136.186 124.769,136.429 124.38,136.498 C123.729,136.613 122.932,136.215 122.004,135.317 C121.221,134.56 120.459,134.104 119.899,134.055 C119.857,134.17 119.814,134.375 119.784,134.519 C119.73,134.779 119.672,135.044 119.58,135.28 C119.539,135.387 119.499,135.481 119.461,135.567 C119.364,135.793 119.337,135.853 119.344,136.033 C119.345,136.006 119.366,136.05 119.382,136.09 C119.661,136.775 119.559,137.296 119.082,137.637 C118.533,138.034 117.843,137.665 116.669,136.979 C116.527,136.895 116.413,136.828 116.35,136.797 C116.173,136.709 115.927,136.542 115.652,136.349 C115.433,136.196 115.042,135.923 114.755,135.778 C114.702,136.038 114.6,136.352 114.325,136.591 C113.553,137.258 112.754,136.873 112.491,136.747 C112.26,136.636 112.04,136.487 111.823,136.338 C111.252,135.944 111.137,135.913 110.866,136.077 C110.785,136.126 110.752,136.162 110.746,136.173 C110.732,136.252 110.84,136.533 110.905,136.701 L110.954,136.832 C111.028,136.947 111.094,137.072 111.159,137.193 C111.307,137.471 111.474,137.783 111.635,138.075 C112.156,139.012 112.629,140.254 111.919,140.837 C111.415,141.249 110.768,141.012 109.412,140.289 L109.316,140.238 C109.063,140.111 108.812,139.974 108.562,139.838 C107.885,139.468 107.245,139.119 106.617,138.989 C106.084,138.88 105.658,138.665 105.246,138.457 C105.005,138.335 104.757,138.208 104.474,138.105 C104.075,137.959 103.685,137.952 103.408,138.088 C103.196,138.19 103.05,138.37 102.962,138.637 C102.942,138.712 102.934,138.977 102.929,139.153 C102.906,139.906 102.859,141.473 101.477,141.492 C100.856,141.491 100.304,141.001 99.474,140.239 C99.282,140.062 99.118,139.906 99.013,139.833 C98.881,139.741 98.693,139.574 98.482,139.381 C98.322,139.235 98.038,138.975 97.824,138.818 C97.706,139.142 97.565,139.882 97.501,141.556 C97.495,141.72 97.49,141.853 97.484,141.941 C97.447,142.498 97.329,143.171 96.749,143.448 C96.122,143.748 95.54,143.337 95.025,142.974 C94.875,142.869 94.715,142.756 94.549,142.655 C94.224,142.46 93.849,142.32 93.452,142.172 C92.871,141.955 92.212,141.709 91.634,141.237 C91.001,140.722 90.714,140.091 90.461,139.533 C90.294,139.165 90.136,138.818 89.891,138.535 C89.453,138.027 88.921,137.617 88.63,137.497 C88.677,137.844 88.952,138.499 89.112,138.878 C89.512,139.828 89.857,140.648 89.411,141.261 C89.277,141.445 88.962,141.748 88.328,141.69 C87.689,141.634 87.019,141.037 86.141,140.199 C85.947,140.014 85.779,139.852 85.66,139.758 C84.688,138.98 84.156,138.778 83.82,139.055 C83.476,139.34 83.744,140.72 83.872,141.385 C84.069,142.399 84.239,143.276 83.45,143.594 C82.848,143.84 82.111,143.456 80.969,142.797 C80.75,142.671 80.566,142.561 80.457,142.513 C79.421,142.068 79.014,141.553 78.45,140.839 C77.897,140.14 76.875,139.241 76.426,139.094 C76.384,139.196 76.268,139.492 76.223,139.604 C75.974,140.242 75.711,140.98 75.769,141.648 C75.779,141.746 75.89,142.024 75.964,142.209 C76.211,142.826 76.492,143.525 76.05,144.067 C75.867,144.292 75.51,144.529 74.847,144.414 C74.523,144.355 74.209,144.154 73.906,143.959 C73.784,143.881 73.669,143.802 73.577,143.761 C73.454,143.706 73.327,143.653 73.198,143.599 C72.727,143.405 72.194,143.184 71.738,142.808 L71.737,142.808 C71.248,142.403 70.952,141.877 70.69,141.413 C70.46,141.006 70.243,140.621 69.94,140.398 C69.569,140.124 69.083,139.855 68.761,139.732 C68.695,140.014 68.53,140.393 68.054,140.543 C67.134,140.84 66.641,139.922 66.455,139.578 C66.425,139.523 66.4,139.473 66.376,139.437 C65.998,138.938 65.188,138.354 64.591,138.635 C64.413,138.719 64.359,138.819 64.455,139.617 C64.477,139.804 64.498,139.989 64.507,140.165 C64.537,140.805 64.574,141.603 63.896,141.866 C63.247,142.114 62.755,141.522 62.594,141.327 C62.431,141.13 62.343,140.922 62.271,140.755 C62.24,140.68 62.204,140.595 62.179,140.559 C61.972,140.261 61.694,140.074 61.343,139.838 C61.221,139.756 61.096,139.671 60.969,139.58 C60.321,139.112 60.075,138.576 59.857,138.102 C59.751,137.872 59.651,137.653 59.502,137.436 C59.103,136.853 58.354,136.335 57.693,135.877 L57.508,135.748 C56.991,135.387 56.802,135.346 56.734,135.345 C56.682,135.481 56.678,135.892 56.676,136.138 C56.668,136.854 56.658,137.835 55.809,138.312 C54.582,139.009 53.617,137.639 53.099,136.904 C52.978,136.733 52.874,136.579 52.785,136.485 C52.569,136.261 52.271,136.07 51.956,135.869 C51.5,135.577 50.984,135.248 50.629,134.733 C50.49,134.532 50.401,134.257 50.256,133.788 C50.238,133.728 50.215,133.657 50.19,133.578 C49.652,133.958 48.836,134.03 48.06,133.162 C47.776,132.844 47.599,132.354 47.333,131.582 C47.186,131.157 46.934,130.424 46.724,130.105 C46.692,130.14 46.654,130.185 46.611,130.245 C46.553,130.324 46.431,130.595 46.342,130.794 C45.978,131.6 45.485,132.709 44.494,132.393 C43.448,132.063 43.269,130.723 43.152,129.837 C43.133,129.692 43.117,129.566 43.098,129.472 C42.863,128.324 42.612,127.877 42.535,127.801 C42.541,127.814 42.365,127.8 42.068,127.914 C41.54,128.12 41.073,128.564 40.985,128.78 C40.967,128.831 40.962,128.895 40.952,128.96 C40.815,129.841 40.374,130.258 39.618,130.22 C38.77,130.166 38.508,129.425 38.396,129.108 C38.257,128.729 38.176,128.455 38.099,128.191 C37.978,127.775 37.873,127.417 37.649,127.012 C37.119,126.055 36.74,125.275 36.697,123.951 C36.692,123.801 36.699,123.598 36.707,123.37 C36.723,122.981 36.763,121.951 36.575,121.729 C36.523,121.686 36.422,121.675 36.276,121.698 C35.801,121.778 35.209,122.218 35.018,122.543 L34.932,122.692 C34.609,123.261 34.205,123.966 33.474,123.841 C32.769,123.72 32.627,122.924 32.581,122.662 C32.453,121.947 32.646,121.238 32.832,120.554 C32.957,120.095 33.075,119.662 33.069,119.312 C33.065,119.054 32.911,118.464 32.774,118.128 C32.745,118.125 32.717,118.122 32.688,118.118 L32.322,118.078 L32.13,117.763 C32.033,117.603 31.95,117.434 31.883,117.26 C31.839,117.367 31.8,117.471 31.775,117.54 C31.723,117.68 31.676,117.804 31.632,117.897 C31.233,118.746 30.731,119.14 30.147,119.059 C29.483,118.972 29.034,118.305 28.812,117.077 C28.611,115.955 28.875,114.959 29.138,114.112 L29.201,113.922 C29.243,113.798 29.28,113.683 29.311,113.58 C29.31,113.582 29.309,113.584 29.308,113.586 C29.148,114.046 28.948,114.618 28.362,114.838 C27.982,114.981 27.554,114.919 27.093,114.656 L26.935,114.536 C26.575,114.178 26.594,113.621 26.7,112.063 C26.724,111.715 26.746,111.393 26.747,111.188 C26.748,110.995 26.761,110.794 26.774,110.588 C26.82,109.882 26.827,109.429 26.545,109.128 C26.325,109.387 26.015,110.063 25.837,110.45 C25.354,111.504 24.937,112.413 24.105,112.529 C23.806,112.571 23.361,112.513 22.93,112.009 C22.397,111.383 22.498,110.541 22.588,109.797 C22.636,109.392 22.697,108.888 22.593,108.676 C22.565,108.618 22.474,108.52 22.394,108.433 C22.278,108.308 22.148,108.169 22.038,107.991 C21.895,107.803 21.863,107.624 21.841,107.5 C21.823,107.414 21.818,107.395 21.813,107.379 C21.661,106.833 21.611,106.262 21.571,105.804 C21.554,105.612 21.547,105.445 21.541,105.284 C21.539,105.197 21.535,105.091 21.528,104.992 C21.025,105.205 20.612,105.662 20.211,106.104 L19.96,106.378 C19.75,106.603 19.11,107.286 18.376,107.003 C17.609,106.707 17.596,105.697 17.59,105.266 C17.583,104.767 17.491,104.291 17.393,103.786 C17.345,103.532 17.296,103.276 17.255,103.013 C17.157,102.375 17.188,102.213 17.389,101.674 L17.429,101.565 C17.579,101.155 17.632,100.931 17.564,100.613 L17.506,100.311 C17.363,99.524 17.219,99.041 17.077,98.872 C16.95,98.949 16.738,99.143 16.616,99.256 C16.218,99.621 15.723,100.074 15.123,99.776 C14.481,99.458 14.56,98.612 14.603,98.158 C14.628,97.891 14.66,97.626 14.692,97.359 C14.782,96.617 14.867,95.915 14.787,95.23 C14.727,94.709 14.649,94.523 14.609,94.459 C14.596,94.465 14.564,94.469 14.52,94.483 C14.367,94.527 14.242,94.589 14.136,94.638 C13.86,94.768 13.444,94.965 13.003,94.711 C12.545,94.447 12.462,93.913 12.417,93.389 C12.327,92.344 12.238,91.318 12.644,90.232 L12.69,90.109 C12.884,89.594 13.05,89.152 13.122,88.691 C12.842,88.947 12.501,89.139 12.085,89.098 C11.416,89.029 11.079,88.398 10.968,88.191 C10.423,87.174 10.89,86.148 11.23,85.399 C11.311,85.223 11.39,85.052 11.45,84.888 C11.8,83.941 12.039,82.892 12.143,81.855 C12.159,81.696 12.193,81.479 12.233,81.234 C12.277,80.967 12.358,80.47 12.384,80.077 C12.294,80.147 12.193,80.21 12.078,80.259 C11.323,80.582 10.849,80.295 10.634,80.095 C9.645,79.18 10.485,76.412 10.766,75.586 C10.963,75.008 11.236,74.498 11.501,74.005 C11.635,73.756 11.769,73.507 11.89,73.251 C12.154,72.693 12.485,72.233 12.806,71.787 C13.003,71.513 13.203,71.236 13.387,70.932 C13.607,70.565 13.821,70.199 14.035,69.834 C14.426,69.168 14.814,68.505 15.234,67.844 L15.354,67.657 C15.473,67.476 15.726,67.088 15.797,66.866 C15.495,66.742 15.006,66.456 15.062,65.598 C15.097,65.059 15.612,64.588 15.916,64.354 C16.368,64.008 16.853,63.713 17.323,63.429 C17.68,63.213 18.038,62.997 18.375,62.758 C19.008,62.31 19.561,61.673 20.094,61.057 L20.51,60.582 C20.58,60.503 20.636,60.432 20.693,60.361 L20.806,60.221 C20.945,60.05 21.044,59.93 21.182,59.798 C21.361,59.625 21.523,59.409 21.688,59.194 C21.85,58.983 22.013,58.773 22.183,58.587 C22.791,57.927 23.404,57.28 24.014,56.635 C24.842,55.76 25.664,54.891 26.458,54.008 C27.695,52.632 29.08,51.494 30.419,50.393 C30.876,50.017 31.337,49.638 31.797,49.246 C31.918,49.143 32.029,49.027 32.14,48.912 C32.311,48.737 32.482,48.563 32.674,48.41 L32.805,48.306 C32.964,48.181 33.195,48 33.29,47.917 C33.414,47.807 33.501,47.719 33.586,47.634 C33.739,47.479 33.885,47.333 34.156,47.118 C34.426,46.905 34.711,46.706 34.996,46.509 C35.258,46.327 35.519,46.146 35.766,45.95 C35.844,45.888 35.931,45.802 36.004,45.731 C36.099,45.638 36.182,45.562 36.233,45.522 C36.347,45.435 36.474,45.377 36.636,45.304 C36.717,45.268 36.806,45.229 36.872,45.191 C36.989,45.121 37.102,45.014 37.217,44.91 C37.372,44.772 37.527,44.636 37.682,44.531 C38.032,44.295 38.399,44.082 38.767,43.87 C39.067,43.696 39.368,43.523 39.658,43.333 C41.019,42.441 41.879,41.414 42.861,40.163 L42.941,40.062 C43.05,39.924 43.191,39.746 43.255,39.633 C43.199,39.556 43.144,39.473 43.089,39.385 C40.095,34.432 16.72,22.352 5.463,22.075 C1.024,21.966 0.504,21.351 0.254,21.056 C0.055,20.822 -0.031,20.53 0.01,20.238 C0.039,20.04 0.058,19.798 0.08,19.534 C0.183,18.289 0.324,16.584 1.448,15.938 C3.018,15.038 6.465,16.074 7.141,16.29 C7.287,16.322 27.519,21.223 45.234,34.826 C45.615,35.119 45.942,35.43 46.222,35.765 C46.258,35.719 46.301,35.664 46.349,35.596 C46.681,35.127 46.814,34.63 46.968,34.054 C47.056,33.727 47.146,33.392 47.272,33.047 C47.516,32.381 47.648,31.731 47.79,31.044 C47.869,30.659 47.949,30.269 48.049,29.868 C48.148,29.47 48.286,29.101 48.421,28.743 C48.553,28.392 48.678,28.061 48.757,27.724 C48.802,27.535 48.82,27.334 48.839,27.135 C48.868,26.853 48.898,26.574 48.964,26.316 C49.01,26.137 49.095,25.926 49.188,25.708 C49.242,25.581 49.299,25.45 49.341,25.323 C49.368,25.242 49.381,25.201 49.388,25.172 C49.398,25.093 49.408,25.011 49.467,24.788 C49.514,24.61 49.571,24.503 49.631,24.402 C49.667,24.34 49.715,24.253 49.799,24.014 C49.806,23.997 49.843,23.908 49.89,23.801 C49.938,23.691 49.999,23.552 50.018,23.507 C50.242,22.639 50.571,22.026 50.989,21.248 L51.05,21.135 C51.252,20.758 51.398,20.336 51.552,19.889 C51.697,19.471 51.846,19.039 52.053,18.614 C52.814,17.047 53.716,15.556 54.589,14.115 L54.843,13.695 C55.296,12.945 55.827,12.24 56.339,11.558 L56.793,10.951 C57.143,10.478 57.541,10.063 57.926,9.662 C58.305,9.268 58.664,8.895 58.952,8.493 C59.092,8.299 59.243,8.024 59.411,7.721 C60.125,6.44 61.322,4.298 63.209,5.255 C63.661,5.483 64.17,6.053 64.364,6.375 C64.433,6.489 64.478,6.616 64.514,6.744 C64.688,6.567 64.879,6.332 64.983,6.203 C65.137,6.012 65.273,5.852 65.372,5.76 C65.971,5.207 66.645,4.862 67.297,4.528 C67.519,4.414 67.742,4.301 67.961,4.178 C68.188,4.05 68.295,3.881 68.48,3.568 C68.664,3.257 68.891,2.87 69.328,2.565 C69.788,2.244 70.32,2.182 70.79,2.128 C71.052,2.098 71.3,2.069 71.464,2.002 C71.751,1.885 71.963,1.675 72.23,1.409 C72.337,1.303 72.446,1.196 72.563,1.089 C72.848,0.829 73.71,0.037 74.627,0.396 C75.072,0.569 75.337,0.948 75.497,1.35 C75.586,1.277 75.687,1.207 75.803,1.146 C76.211,0.929 76.602,0.88 76.947,0.837 C77.056,0.823 77.166,0.809 77.278,0.788 C77.448,0.757 77.645,0.637 77.855,0.51 C78.14,0.337 78.462,0.142 78.861,0.07 C79.388,-0.025 79.796,0.079 80.076,0.381 C80.523,0.861 80.357,1.508 80.225,2.028 C80.207,2.095 80.184,2.185 80.165,2.269 C80.338,2.216 80.554,2.131 80.706,2.071 C81.074,1.925 81.454,1.773 81.82,1.74 C81.941,1.729 82.066,1.722 82.195,1.715 C82.484,1.7 82.757,1.685 83.011,1.614 C83.403,1.504 83.504,1.399 83.773,1.117 C83.894,0.991 84.029,0.851 84.201,0.697 C84.77,0.183 86.008,-0.009 86.849,0.283 C87.423,0.484 87.804,0.905 87.894,1.438 C87.986,1.987 87.709,2.487 87.465,2.927 C87.404,3.037 87.312,3.201 87.247,3.344 C87.383,3.299 87.528,3.241 87.629,3.202 C87.886,3.101 88.129,3.006 88.359,2.972 C89.303,2.84 90.229,3.053 91.048,3.241 L91.478,3.339 C91.543,3.353 91.632,3.362 91.73,3.372 C92.239,3.429 93.431,3.564 93.449,4.61 C93.45,4.682 93.443,4.749 93.431,4.812 C93.486,4.803 93.534,4.793 93.573,4.786 C93.734,4.755 93.872,4.731 93.963,4.723 C94.834,4.654 95.402,4.91 95.953,5.16 C96.138,5.244 96.331,5.334 96.553,5.413 C96.956,5.558 97.404,5.546 97.922,5.529 C98.304,5.517 98.699,5.506 99.115,5.559 C99.181,5.567 99.264,5.572 99.356,5.577 C99.92,5.612 100.772,5.664 101.155,6.311 C101.418,6.757 101.378,7.129 101.298,7.363 C101.121,7.881 100.636,8.118 100.234,8.282 C100.565,8.393 100.838,8.56 101.083,8.711 C101.323,8.859 101.53,8.986 101.735,9.025 C102.293,9.129 102.56,9.11 102.684,9.074 C103.224,8.914 103.594,8.842 103.915,8.942 L104.027,8.988 C104.527,9.239 104.662,9.595 104.687,9.849 C104.746,10.443 104.268,10.815 103.983,11.037 C103.956,11.058 103.93,11.078 103.906,11.096 C103.882,11.176 103.856,11.258 103.821,11.341 C103.955,11.363 104.094,11.383 104.213,11.401 C105.384,11.579 106.127,11.933 106.914,12.308 C107.649,12.658 108.318,12.851 108.959,12.897 C109.049,12.899 109.199,12.877 109.362,12.857 C109.991,12.779 110.586,12.705 110.975,13.069 C111.58,13.757 110.9,14.352 110.573,14.639 C110.456,14.741 110.238,14.932 110.185,15.01 C110.121,15.105 110.065,15.211 110.008,15.317 C109.932,15.458 109.854,15.598 109.768,15.729 C109.64,15.925 109.474,16.113 109.311,16.293 C109.229,16.384 109.117,16.508 109.051,16.598 C109.056,16.603 109.061,16.608 109.067,16.613 C109.62,17.08 110.604,17.308 111.341,17.365 C111.915,17.41 112.394,17.448 112.988,17.766 C113.146,17.851 114.538,18.614 114.656,19.278 L114.719,19.636 L114.273,20.158 L113.977,20.185 C113.884,20.205 113.566,20.372 113.395,20.462 C113.234,20.546 113.084,20.624 112.964,20.676 C112.865,20.787 112.691,20.961 112.398,21.046 C112.562,21.059 112.742,21.056 112.931,21.053 C113.194,21.048 113.459,21.047 113.72,21.077 C114.688,21.185 115.348,21.511 115.681,22.044 C115.853,22.32 116.012,22.777 115.811,23.402 C115.915,23.425 116.008,23.449 116.08,23.476 C116.907,23.783 118.159,24.246 118.96,24.972 C119.112,25.11 119.225,25.28 119.335,25.445 C119.369,25.495 119.401,25.548 119.434,25.593 C119.451,25.595 119.468,25.598 119.485,25.6 C120.254,25.714 120.656,26.078 120.681,26.685 C120.733,27.11 120.721,27.221 119.693,27.655 C119.817,27.651 119.946,27.655 120.076,27.671 C120.341,27.701 122.677,27.992 122.876,28.79 C123.041,29.383 122.536,29.76 122.047,30.125 C122.036,30.134 122.023,30.143 122.01,30.153 C122.394,30.223 122.875,30.273 123.166,30.303 C123.835,30.372 124.226,30.417 124.508,30.545 C124.949,30.746 125.308,31.03 125.624,31.281 C125.792,31.414 125.959,31.548 126.139,31.666 C126.193,31.7 126.37,31.757 126.487,31.795 C126.841,31.909 127.281,32.051 127.555,32.413 C127.856,32.81 127.935,33.193 127.791,33.55 C127.568,34.1 126.991,34.189 126.57,34.254 C126.56,34.255 126.551,34.257 126.54,34.259 C126.664,34.305 126.793,34.347 126.887,34.379 C127.097,34.449 127.296,34.516 127.455,34.589 L127.696,34.695 C128.253,34.94 128.947,35.245 129.404,35.686 C129.878,36.143 129.915,36.551 129.885,36.923 C129.912,37.092 129.922,37.127 130.548,37.146 C130.918,37.156 131.379,37.17 131.83,37.339 C132.413,37.556 132.814,37.964 133.168,38.323 L133.29,38.446 C133.465,38.62 133.693,38.772 133.934,38.932 C134.244,39.136 134.594,39.369 134.892,39.695 L135.792,40.681 L134.481,40.937 C134.381,40.956 134.181,40.981 133.927,41.011 C133.923,41.012 133.919,41.012 133.915,41.013 L134.057,41.084 C134.28,41.192 134.655,41.374 134.739,41.823 C134.83,42.305 134.506,42.655 134.269,42.91 C134.073,43.122 133.83,43.242 133.636,43.339 C133.621,43.346 133.605,43.354 133.588,43.363 C133.716,43.433 133.918,43.518 134.2,43.59 C134.494,43.665 134.801,43.667 135.127,43.67 C135.692,43.674 136.332,43.679 137.004,44.058 C137.615,44.402 137.932,44.847 138.212,45.239 C138.37,45.461 138.506,45.652 138.688,45.82 C138.725,45.842 138.814,45.873 138.901,45.911 C139.27,46.07 139.957,46.365 139.924,47.096 C139.892,47.81 139.191,47.91 138.435,48.002 C138.403,48.031 138.363,48.075 138.312,48.132 C138.212,48.242 138.088,48.38 137.913,48.508 C137.421,48.867 136.829,48.893 136.332,48.896 C136.579,48.995 136.84,49.09 137.106,49.187 C138.462,49.681 139.999,50.241 140.773,51.673 C140.946,51.994 141.268,52.592 140.96,53.118 C140.684,53.591 140.168,53.599 139.861,53.604 C139.71,53.606 139.554,53.609 139.447,53.646 C139.424,53.66 139.394,53.689 139.362,53.715 C139.233,53.818 139.038,53.974 138.754,54.059 C138.449,54.151 138.14,54.139 137.893,54.13 C137.842,54.128 137.79,54.125 137.741,54.124 C137.935,54.283 138.15,54.445 138.302,54.559 C138.517,54.72 138.718,54.873 138.875,55.006 C139.095,55.191 139.311,55.328 139.528,55.467 C139.726,55.594 139.926,55.723 140.13,55.877 C140.48,56.14 140.735,56.413 140.96,56.654 C141.261,56.976 141.499,57.23 141.913,57.426 C143.962,58.39 145.638,58.905 147.187,59.045 L148.37,59.153 L147.764,60.175 C147.588,60.472 147.321,60.608 147.146,60.684 C147.086,60.819 147.022,60.938 146.889,61.045 C146.683,61.208 146.485,61.421 146.276,61.646 C145.881,62.071 145.433,62.553 144.814,62.808 C144.503,62.937 143.846,63.17 143.406,63.252 C143.054,63.318 142.78,63.249 142.595,63.2 L142.225,63.473 L142.059,63.455 C142.225,63.66 142.406,63.869 142.546,64.033 C143.404,65.028 144.144,65.886 143.877,66.712 C143.803,66.94 143.584,67.344 142.948,67.495 C142.358,67.632 141.792,67.386 141.293,67.168 C140.595,66.864 140.386,66.826 140.225,66.98 C140.156,67.044 140.142,67.079 140.142,67.079 C140.173,67.181 140.422,67.514 141.78,68.225 C141.925,68.301 142.046,68.366 142.132,68.416 C143.062,68.962 143.46,69.557 143.833,70.4 C143.872,70.483 144.058,70.69 144.181,70.827 C144.571,71.264 145.013,71.758 144.949,72.37 C144.821,73.598 143.59,73.671 143.127,73.699 C143.015,73.706 142.908,73.705 142.827,73.727 C142.648,73.785 142.474,73.882 142.272,73.993 C141.959,74.165 141.604,74.361 141.118,74.476 C140.753,74.562 140.621,74.634 140.577,74.665 C140.59,74.681 140.604,74.769 140.671,74.925 C140.763,75.142 140.973,75.487 141.112,75.716 C141.202,75.863 141.288,75.948 141.37,76.037 C141.546,76.231 141.729,76.431 141.841,76.672 C141.963,76.933 142.002,77.188 142.033,77.392 C142.052,77.512 142.069,77.625 142.097,77.696 C142.12,77.752 142.178,77.833 142.239,77.918 C142.361,78.09 142.514,78.303 142.604,78.598 C142.755,79.094 142.87,79.666 142.571,80.145 C142.44,80.354 142.18,80.62 141.679,80.7 C141.175,80.78 140.769,80.592 140.502,80.467 C140.446,80.441 140.37,80.406 140.318,80.386 C140.309,80.398 140.29,80.416 140.268,80.441 C140.071,80.664 140.071,81.253 140.269,81.873 C140.509,82.626 140.945,83.313 141.407,84.041 C141.844,84.729 142.296,85.441 142.599,86.248 C142.704,86.528 142.788,86.794 142.869,87.055 C143.018,87.534 143.147,87.948 143.402,88.378 C143.466,88.486 143.565,88.614 143.67,88.755 C144.03,89.236 144.437,89.78 144.455,90.364 C144.475,91.014 144.184,91.301 143.937,91.427 C143.381,91.706 142.885,91.321 142.588,91.09 L142.475,91.004 C141.782,90.508 141.08,90.258 140.588,90.335 C140.528,90.344 140.482,90.355 140.447,90.365 C140.565,90.738 141.181,91.5 141.459,91.844 C141.763,92.221 142.025,92.546 142.169,92.823 C142.316,93.107 142.435,93.385 142.552,93.657 C142.746,94.112 142.913,94.504 143.201,94.877 C143.232,94.917 143.283,94.969 143.34,95.033 C143.741,95.47 144.486,96.285 144.05,97.099 C143.873,97.432 143.438,97.936 142.503,97.545 C142.466,97.529 142.429,97.512 142.391,97.501 C142.421,97.512 142.337,97.549 142.28,97.573 C142.108,97.646 141.872,97.748 141.588,97.758 C141.175,97.77 140.823,97.643 140.509,97.527 C140.417,97.493 140.315,97.455 140.222,97.427 C140.546,98.067 140.737,98.545 140.94,99.11 C141.02,99.333 141.111,99.462 141.236,99.64 C141.369,99.829 141.533,100.063 141.675,100.411 C141.756,100.672 141.76,100.679 141.803,100.976 C141.954,101.082 142.181,101.241 142.312,101.517 C142.618,102.164 142.473,102.59 142.297,102.833 C141.967,103.291 141.425,103.333 140.874,103.291 C140.886,103.316 140.899,103.341 140.911,103.366 C141.792,105.156 142.625,106.846 141.636,107.629 C140.666,108.393 139.547,107.899 138.73,107.54 C138.453,107.418 137.993,107.222 137.842,107.236 C137.793,107.295 137.82,107.572 138.135,108.079 L138.197,108.179 C138.861,109.246 139.176,109.871 138.41,111.135 C138.476,111.194 138.55,111.262 138.63,111.343 C139.142,111.858 139.559,112.541 139.835,113.316 C139.988,113.741 140.061,114.153 140.132,114.551 C140.177,114.804 140.221,115.059 140.29,115.311 C140.352,115.536 140.443,115.647 140.594,115.832 C140.717,115.983 140.871,116.171 141.008,116.432 C141.367,117.119 141.211,117.574 141.017,117.835 C140.506,118.521 139.452,118.316 138.523,118.137 C138.33,118.099 138.159,118.064 138.039,118.054 C137.328,117.988 136.894,118.003 136.749,118.094 C136.752,118.102 136.752,118.133 136.758,118.179 C136.827,118.697 137.265,119.044 137.98,119.554 C138.351,119.819 138.736,120.093 139.041,120.435 C139.717,121.194 139.939,122.144 140.136,122.983 C140.21,123.303 140.283,123.617 140.382,123.91 C140.414,124.005 140.46,124.097 140.502,124.187 C140.662,124.526 140.879,124.991 140.648,125.49 C140.496,125.821 140.188,126.052 139.734,126.175 C139.183,126.325 138.71,126.157 138.328,125.939 C138.418,126.091 138.5,126.263 138.568,126.47 L138.671,126.8 C138.803,127.234 138.87,127.453 139.153,127.734 C139.224,127.804 139.496,127.946 139.677,128.041 C140.192,128.309 140.776,128.615 141.004,129.148 C141.073,129.308 141.28,129.796 141.049,130.264 C140.829,130.71 140.386,130.824 140.121,130.891 C140.052,130.909 139.978,130.926 139.909,130.954 C138.725,131.426 138.597,131.654 138.622,131.75 C138.669,131.924 139.148,132.26 139.378,132.421 C139.536,132.531 139.682,132.636 139.797,132.731 C140.042,132.932 140.226,133.11 140.399,133.277 C140.64,133.51 140.829,133.692 141.158,133.908 C141.521,134.145 141.933,134.414 142.173,134.898 C142.376,135.131 142.489,135.294 142.576,135.638 C142.645,135.913 142.825,136.074 143.192,136.383 L143.416,136.574 C144.369,137.407 145.349,138.372 146.328,139.441 C147.274,140.475 148.143,141.698 148.712,142.794 C149.086,143.512 149.17,144.012 149.046,144.774 C149.031,144.87 149.041,145.009 149.045,145.153 C149.059,145.617 149.073,146.096 148.809,146.459 L148.414,147 Z" id="Fill-34" fill="#FFFFFE" mask="url(#mask-2)"></path>
            </g>
            <path d="M134.168,131.981 C133.946,131.744 127.927,125.312 119.192,115.97 C119.244,115.933 119.279,115.917 119.284,115.915 C119.352,115.892 119.403,115.844 119.436,115.786 C120.608,115.295 123.933,114.72 131.651,118.117 C131.792,118.179 131.957,118.115 132.019,117.973 C132.089,117.825 132.018,117.666 131.877,117.605 C122.91,113.658 119.638,114.932 118.758,115.506 C115.338,111.846 111.517,107.758 107.472,103.429 C109.608,102.952 118.047,101.799 130.509,109.32 C130.642,109.4 130.813,109.357 130.893,109.225 C130.975,109.089 130.931,108.922 130.799,108.842 C117.353,100.725 108.668,102.507 107.031,102.956 C101.547,97.087 95.67,90.794 89.838,84.543 C90.511,84.381 92.669,84.073 97.551,85.012 C103.135,86.086 113.536,89.061 131.367,97.135 C131.507,97.2 131.673,97.137 131.736,96.996 C131.804,96.859 131.737,96.69 131.597,96.627 C98.116,81.465 90.154,83.797 89.411,84.085 C82.42,76.592 75.515,69.182 69.445,62.656 C74.081,62.525 104.783,62.429 130.913,81.309 C131.038,81.399 131.212,81.371 131.303,81.247 C131.393,81.119 131.366,80.948 131.241,80.856 C125.094,76.415 118.695,73.021 112.438,70.424 C113.357,69.559 118.909,64.924 130.305,67.086 C130.456,67.114 130.602,67.015 130.632,66.863 C130.643,66.722 130.56,66.564 130.409,66.535 C117.605,64.108 112.101,69.945 111.872,70.194 C90.396,61.433 70.742,62.036 68.941,62.114 C58.945,51.365 51.315,43.118 49.531,41.078 C50.523,41.207 52.619,41.52 55.107,41.894 C61.878,42.909 73.161,44.597 81.083,45.384 C81.109,45.385 81.132,45.396 81.157,45.391 C83.408,45.613 85.399,45.766 86.915,45.803 L87.603,45.821 C97.384,46.056 112.164,46.413 132.15,57.409 C132.285,57.483 132.455,57.433 132.529,57.298 C132.607,57.162 132.557,56.992 132.419,56.918 C126.432,53.624 120.914,51.285 115.851,49.61 C116.968,48.945 120.192,47.323 126.609,46.195 C126.762,46.168 126.859,46.025 126.836,45.871 C126.81,45.718 126.665,45.618 126.512,45.644 C118.957,46.972 115.796,48.941 115.162,49.382 C103.549,45.647 94.391,45.425 87.617,45.262 L86.929,45.245 C85.521,45.21 83.699,45.076 81.64,44.878 C82.667,43.56 86.199,39.264 91.54,35.078 C92.656,34.817 103.184,32.446 111.29,33.954 C111.442,33.983 111.588,33.882 111.617,33.73 C111.616,33.564 111.542,33.432 111.392,33.404 C104.458,32.114 95.8,33.619 92.585,34.28 C96.578,31.299 101.475,28.478 107.032,26.957 C107.183,26.914 107.266,26.758 107.228,26.613 C107.186,26.464 107.033,26.376 106.885,26.417 C100.794,28.084 95.49,31.289 91.284,34.572 C91.224,34.592 91.179,34.63 91.146,34.68 C85.312,39.261 81.634,43.955 80.984,44.813 C73.091,44.022 61.913,42.349 55.189,41.341 C52.116,40.88 50.54,40.644 49.707,40.54 C53.918,37.748 77.653,22.363 95.69,17.999 C95.84,17.965 95.934,17.807 95.895,17.662 C95.86,17.512 95.708,17.42 95.559,17.457 C89.296,18.971 82.356,21.805 75.779,24.981 C75.546,23.217 74.776,14.849 79.989,8.735 C80.084,8.617 80.073,8.441 79.957,8.342 C79.84,8.241 79.662,8.255 79.562,8.373 C76.855,11.549 75.717,15.317 75.283,18.504 C74.83,21.832 75.146,24.52 75.249,25.24 C61.358,32.006 49.236,40.177 48.766,40.496 C48.745,40.506 48.728,40.518 48.714,40.531 L48.661,40.569 L48.653,40.594 L48.597,40.653 L48.61,40.728 C48.465,41.208 47.543,44.38 46.823,49.674 C46.451,52.403 46.138,55.705 46.008,59.479 C43.465,60.345 25.122,71.082 22.425,90.906 C22.246,92.219 22.134,93.575 22.103,94.967 C22.101,95.121 22.222,95.249 22.375,95.252 C22.532,95.256 22.672,95.146 22.662,94.979 C23.163,73.056 42.137,62.093 45.723,60.255 C45.578,60.517 45.391,60.846 45.19,61.2 C34.972,79.205 31.558,97.157 35.054,114.557 C35.084,114.708 35.231,114.806 35.383,114.776 C35.535,114.745 35.635,114.596 35.602,114.447 C32.131,97.184 35.524,79.363 45.678,61.475 C45.789,61.28 45.885,61.111 45.971,60.958 C45.929,63.047 45.939,65.258 46.036,67.606 C46.274,73.378 47.03,80.371 48.771,88.263 C48.712,88.297 48.663,88.35 48.642,88.421 C48.615,88.505 47.194,93.28 46.149,100.954 C45.362,106.742 44.789,114.178 45.192,122.489 C45.2,122.643 45.332,122.763 45.485,122.756 C45.64,122.748 45.755,122.617 45.751,122.462 C44.931,105.526 48.175,92.264 48.992,89.239 C50.553,96.06 52.852,103.53 56.191,111.453 C55.51,111.737 53.986,113.024 53.193,118.849 C52.823,121.57 52.614,125.28 52.725,130.339 C52.729,130.494 52.855,130.616 53.01,130.613 C53.163,130.61 53.277,130.483 53.283,130.327 C52.937,114.538 55.777,112.283 56.416,111.976 C59.231,118.582 62.761,125.493 67.192,132.6 C67.274,132.732 67.447,132.772 67.577,132.69 C67.71,132.606 67.748,132.432 67.667,132.306 C51.387,106.189 47.223,82.71 46.598,67.611 C45.995,53.185 48.425,43.473 49.028,41.301 C50.818,43.376 58.384,51.573 68.544,62.508 C68.504,64.33 68.152,89.931 77.852,114.489 C77.852,114.491 77.852,114.491 77.852,114.493 C77.766,115.123 76.692,123.552 79.016,132.905 C79.053,133.054 79.205,133.145 79.355,133.108 C79.506,133.07 79.598,132.916 79.559,132.769 C77.668,125.158 78.051,118.179 78.292,115.598 C80.189,120.246 82.448,124.842 85.149,129.216 C85.23,129.346 85.402,129.387 85.535,129.306 C85.665,129.224 85.706,129.054 85.625,128.922 C69.408,102.654 69.048,68.364 69.094,63.1 C75.088,69.55 81.95,76.914 89.045,84.52 C88.823,84.927 88.494,85.73 88.3,87.16 C87.67,91.786 88.484,102.872 99.162,127.603 C99.223,127.745 99.387,127.81 99.529,127.749 C99.672,127.687 99.738,127.523 99.675,127.382 C86.261,96.308 88.603,86.908 89.46,84.965 C95.124,91.036 100.926,97.25 106.548,103.267 C106.401,103.552 106.027,104.388 105.82,105.909 C105.351,109.353 105.757,116.264 111.691,127.968 C111.762,128.105 111.93,128.16 112.068,128.091 C112.204,128.022 112.258,127.855 112.191,127.714 C104.28,112.117 106.387,105.096 106.963,103.712 C110.916,107.941 114.774,112.068 118.426,115.974 C118.427,115.975 118.426,115.976 118.427,115.977 C118.359,116.072 118.29,116.162 118.224,116.289 C118.031,116.661 117.865,117.163 117.772,117.843 C117.517,119.721 117.822,122.951 119.661,128.497 C119.709,128.643 119.869,128.722 120.015,128.674 C120.161,128.624 120.238,128.471 120.192,128.32 C117.507,120.225 118.204,117.363 118.815,116.39 C124.435,122.4 129.557,127.875 133.759,132.365 C133.865,132.477 134.042,132.482 134.156,132.378 C134.267,132.27 134.276,132.095 134.168,131.981" id="Fill-36" fill="#FFFFFE"></path>
        </g>
    </g>
</svg>